<svg width="434" height="118" viewBox="0 0 434 118" fill="none" xmlns="http://www.w3.org/2000/svg">
<mask id="mask0_1740_31" style="mask-type:alpha" maskUnits="userSpaceOnUse" x="1" y="1" width="83" height="83">
<path d="M83.1376 42.6884C83.1376 65.2813 64.8199 83.599 42.227 83.599C19.634 83.599 1.31641 65.2813 1.31641 42.6884C1.31641 22.4693 15.9791 5.67829 35.2518 2.37236C37.5194 1.9803 39.8531 1.77637 42.2284 1.77637C63.7773 1.77637 81.4343 18.4382 83.0169 39.5792V39.595C83.0988 40.6146 83.139 41.6515 83.139 42.6869L83.1376 42.6884Z" fill="#3388F8"/>
</mask>
<g mask="url(#mask0_1740_31)">
<path d="M83.1374 42.6886C83.1374 65.2815 64.8198 83.5992 42.2269 83.5992C19.6339 83.5992 1.3163 65.2815 1.3163 42.6886C1.3163 22.4695 15.979 5.67849 35.2517 2.37255C37.5193 1.98049 39.853 1.77656 42.2283 1.77656C63.7772 1.77656 81.4342 18.4384 83.0168 39.5794V39.5952C83.0987 40.6148 83.1389 41.6517 83.1389 42.6871L83.1374 42.6886Z" fill="#2CA4F4"/>
<path d="M85.5056 43.3307C85.2166 43.4914 84.8526 43.5456 84.3943 43.4269C83.8181 43.2772 83.2803 42.9976 82.786 42.7406C81.3692 42.0039 80.3104 41.4533 79.7355 44.6835C78.96 49.0493 65.775 51.1777 58.7007 49.3423C51.6264 47.4983 53.1774 43.908 55.7955 41.3877C57.3461 39.8899 55.4116 37.607 53.5847 35.4512C52.3355 33.9771 51.1367 32.5624 51.1367 31.4986C51.1367 30.3488 52.3521 29.9851 53.74 29.5698C55.5139 29.039 57.5696 28.4239 57.7299 25.9753C58.0243 21.6182 50.126 20.191 42.5619 19.8076C36.099 19.4726 37.6898 8.40377 38.5016 5.2264C38.2294 5.26776 38.7718 -3.75788 38.5016 -3.71115C34.076 -4.2121 31.4465 -18.9125 22.5976 -7.87357C20.8504 -7.8738 17.9903 -14.0858 15.065 -8.45471C9.74002 -8.30262 8.26146 -6.50591 16.7471 0.981728C17.4784 5.77827 7.91517 1.59543 5.11857 5.2264C2.14693 9.08463 3.81468 19.5007 2.63267 24.3838C4.47789 25.0785 10.3388 38.4109 9.90428 41.0193C9.32266 44.5091 8.74105 48.9883 11.5041 50.311C14.2672 51.6336 17.3204 57.0148 14.8488 58.9047C13.9437 59.5968 13.4465 60.9839 12.9551 62.3547C12.1822 64.511 11.4237 66.6272 9.11457 65.9355C13.6262 73.8338 20.6943 80.0839 29.1914 83.558C28.9767 81.7561 28.6948 78.4392 29.3524 77.2964C29.7089 76.6767 30.3419 76.4498 31.0343 76.2016C32.1296 75.809 33.3736 75.3631 33.9077 73.225C34.2962 71.6724 34.1662 69.6015 34.043 67.64C33.8893 65.1927 33.7464 62.9156 34.6344 62.0275C35.4612 61.2008 36.4433 62.044 37.6409 63.0721C38.7606 64.0335 40.0685 65.1564 41.6139 65.2272C42.6491 65.2741 44.1102 64.9558 45.7562 64.5972C49.1979 63.8474 53.4478 62.9215 56.3011 64.7906C60.5175 67.5537 68.8068 72.7884 70.8432 71.0436C72.5259 69.6017 74.5342 72.0323 75.181 72.92C77.84 69.9438 81.7389 68.4524 83.443 64.7906C83.8042 64.0145 82.473 61.1566 82.786 60.3549C83.5726 58.3402 85.0439 58.8536 85.5056 56.6983C85.6454 56.0458 84.4555 51.9448 84.9056 52.2373C85.1711 50.6099 86.8128 49.2428 86.8802 47.5569C86.9022 47.0053 85.5056 46.7244 85.5056 46.1674L86.4414 45.2898C86.4414 44.5072 85.5522 44.1069 85.5056 43.3307Z" fill="#61D6FF"/>
<path fill-rule="evenodd" clip-rule="evenodd" d="M27.3723 62.5498C49.9653 62.5498 68.2829 44.2321 68.2829 21.6392L68.2844 21.6377C68.2844 20.6023 68.2441 19.5654 68.1623 18.5458V18.53C67.9686 15.9425 67.5341 13.4221 66.8811 10.9911C76.2587 17.8611 82.6007 28.6291 83.5199 40.9082V40.924C83.6017 41.9437 83.642 42.9805 83.642 44.016L83.6405 44.0174C83.6405 66.6104 65.3229 84.928 42.7299 84.928C23.8184 84.928 7.90248 72.0936 3.21772 54.6604C9.98701 59.6207 18.3378 62.5498 27.3723 62.5498Z" fill="black" fill-opacity="0.2"/>
<path d="M46.6474 8.62609C24.0597 9.16444 6.18274 27.9143 6.72108 50.502L6.71968 50.5035C6.74435 51.5387 6.80928 52.5743 6.91541 53.5918L6.91579 53.6076C7.52604 59.7799 9.50256 65.5362 12.5331 70.5787C6.11144 64.104 1.83087 55.484 0.878424 45.8506L0.878047 45.8348C0.771912 44.8174 0.706991 43.7817 0.682319 42.7465L0.683721 42.745C0.145377 20.1573 18.0223 1.40747 40.61 0.869122C55.8517 0.505859 69.3459 8.52754 76.6764 20.7235C69.0324 13.0157 58.3554 8.34705 46.6474 8.62609Z" fill="white" fill-opacity="0.2"/>
</g>
<path d="M380.985 65.4453L368.09 24.0523H380.667L386 47.5348C386.213 48.5431 386.425 49.6045 386.637 50.7189C386.903 51.7803 387.115 52.8151 387.274 53.8234C387.592 51.7007 388.043 49.578 388.627 47.4552L394.677 24.0523H407.015L413.463 47.4552C414.047 49.578 414.498 51.7007 414.816 53.8234C414.975 52.8151 415.161 51.7803 415.374 50.7189C415.639 49.6045 415.878 48.5431 416.09 47.5348L421.821 24.0523H433.523L420.627 65.4453H409.005L402.239 41.8831C401.602 39.8135 401.125 37.7438 400.806 35.6741C400.647 36.6824 400.461 37.7173 400.249 38.7786C400.037 39.84 399.798 40.8748 399.533 41.8831L393.324 65.4453H380.985Z" fill="black"/>
<path d="M348.131 66.4801C343.886 66.4801 340.144 65.4984 336.907 63.5348C333.67 61.5713 331.149 58.971 329.345 55.7338C327.594 52.4436 326.718 48.8085 326.718 44.8284C326.718 40.8483 327.647 37.2131 329.504 33.9229C331.362 30.5796 333.882 27.9262 337.066 25.9627C340.303 23.9992 343.992 23.0174 348.131 23.0174C352.27 23.0174 355.905 23.9992 359.036 25.9627C362.221 27.9262 364.688 30.5796 366.439 33.9229C368.244 37.2131 369.146 40.8483 369.146 44.8284C369.146 45.4121 369.119 46.0224 369.066 46.6592C369.013 47.296 368.934 47.9594 368.828 48.6493H337.862C338.446 51.0904 339.614 53.0804 341.365 54.6194C343.169 56.1584 345.425 56.9279 348.131 56.9279C350.466 56.9279 352.483 56.3972 354.181 55.3358C355.932 54.2745 357.285 52.9478 358.24 51.3557L366.599 57.6443C364.954 60.2446 362.486 62.3673 359.196 64.0125C355.905 65.6576 352.217 66.4801 348.131 66.4801ZM347.972 32.2513C345.425 32.2513 343.249 33.0207 341.444 34.5597C339.64 36.0987 338.446 38.1153 337.862 40.6095H358.32C357.736 38.3275 356.516 36.364 354.658 34.7189C352.854 33.0738 350.625 32.2513 347.972 32.2513Z" fill="black"/>
<path d="M316.541 20.6294C314.737 20.6294 313.198 20.0191 311.925 18.7985C310.704 17.5249 310.094 16.0125 310.094 14.2612C310.094 12.563 310.704 11.1037 311.925 9.88311C313.198 8.60947 314.737 7.97266 316.541 7.97266C318.399 7.97266 319.938 8.60947 321.158 9.88311C322.379 11.1037 322.989 12.563 322.989 14.2612C322.989 16.0655 322.379 17.578 321.158 18.7985C319.938 20.0191 318.399 20.6294 316.541 20.6294ZM311.208 65.4453V24.0523H321.954V65.4453H311.208Z" fill="black"/>
<path d="M281.193 65.4453L263.92 24.0523H276.656L284.935 47.694C285.677 49.8168 286.261 52.0191 286.686 54.301C287.11 52.0191 287.694 49.8168 288.437 47.694L296.716 24.0523H309.213L292.019 65.4453H281.193Z" fill="black"/>
<path d="M243.979 66.4801C239.734 66.4801 235.94 65.4984 232.596 63.5348C229.253 61.5713 226.626 58.971 224.716 55.7338C222.858 52.4436 221.93 48.8085 221.93 44.8284C221.93 40.8483 222.858 37.2131 224.716 33.9229C226.626 30.6327 229.253 28.0058 232.596 26.0423C235.94 24.0788 239.734 23.097 243.979 23.097C248.278 23.097 252.072 24.0788 255.362 26.0423C258.706 28.0058 261.306 30.6327 263.163 33.9229C265.074 37.2131 266.029 40.8483 266.029 44.8284C266.029 48.8085 265.074 52.4436 263.163 55.7338C261.306 58.971 258.706 61.5713 255.362 63.5348C252.072 65.4984 248.278 66.4801 243.979 66.4801ZM243.979 56.6891C246.261 56.6891 248.251 56.1584 249.949 55.097C251.648 53.9826 252.948 52.5232 253.85 50.7189C254.805 48.9146 255.283 46.9511 255.283 44.8284C255.283 42.6526 254.805 40.6625 253.85 38.8582C252.948 37.0539 251.648 35.6211 249.949 34.5597C248.251 33.4453 246.261 32.8881 243.979 32.8881C241.697 32.8881 239.707 33.4453 238.009 34.5597C236.311 35.6211 234.984 37.0539 234.029 38.8582C233.127 40.6625 232.676 42.6526 232.676 44.8284C232.676 46.9511 233.127 48.9146 234.029 50.7189C234.984 52.5232 236.311 53.9826 238.009 55.097C239.707 56.1584 241.697 56.6891 243.979 56.6891Z" fill="black"/>
<path d="M198.724 65.4453V24.0523H209.152V31.9329C209.841 28.961 211.248 26.7057 213.37 25.1667C215.493 23.5746 218.359 22.8848 221.967 23.097V33.2065H220.455C217.377 33.2065 214.777 34.1882 212.654 36.1518C210.531 38.1153 209.47 40.8217 209.47 44.2712V65.4453H198.724Z" fill="black"/>
<path d="M172.991 66.4801C168.746 66.4801 165.004 65.4984 161.767 63.5348C158.53 61.5713 156.009 58.971 154.205 55.7338C152.454 52.4436 151.578 48.8085 151.578 44.8284C151.578 40.8483 152.507 37.2131 154.364 33.9229C156.222 30.5796 158.742 27.9262 161.926 25.9627C165.164 23.9992 168.852 23.0174 172.991 23.0174C177.13 23.0174 180.766 23.9992 183.897 25.9627C187.081 27.9262 189.548 30.5796 191.3 33.9229C193.104 37.2131 194.006 40.8483 194.006 44.8284C194.006 45.4121 193.98 46.0224 193.926 46.6592C193.873 47.296 193.794 47.9594 193.688 48.6493H162.722C163.306 51.0904 164.474 53.0804 166.225 54.6194C168.029 56.1584 170.285 56.9279 172.991 56.9279C175.326 56.9279 177.343 56.3972 179.041 55.3358C180.792 54.2745 182.145 52.9478 183.101 51.3557L191.459 57.6443C189.814 60.2446 187.346 62.3673 184.056 64.0125C180.766 65.6576 177.077 66.4801 172.991 66.4801ZM172.832 32.2513C170.285 32.2513 168.109 33.0207 166.305 34.5597C164.5 36.0987 163.306 38.1153 162.722 40.6095H183.18C182.596 38.3275 181.376 36.364 179.518 34.7189C177.714 33.0738 175.485 32.2513 172.832 32.2513Z" fill="black"/>
<path d="M122.984 66.4801C119.216 66.4801 115.767 65.5249 112.636 63.6144C109.558 61.6509 107.09 59.0506 105.233 55.8134C103.429 52.5232 102.527 48.8881 102.527 44.908C102.527 41.9362 103.057 39.1501 104.119 36.5498C105.18 33.8964 106.639 31.5879 108.497 29.6244C110.354 27.6078 112.503 26.0423 114.945 24.9279C117.439 23.7604 120.119 23.1766 122.984 23.1766C126.593 23.1766 129.406 23.8665 131.422 25.2463C133.439 26.573 135.004 28.3508 136.119 30.5796V24.0523H146.785V65.4453H136.357V58.6791C135.243 61.0141 133.651 62.898 131.581 64.3309C129.565 65.7637 126.699 66.4801 122.984 66.4801ZM124.736 56.7687C127.124 56.7687 129.167 56.238 130.865 55.1766C132.616 54.0622 133.969 52.6028 134.925 50.7985C135.88 48.9942 136.357 47.0307 136.357 44.908C136.357 42.7322 135.88 40.7421 134.925 38.9378C133.969 37.1335 132.616 35.6741 130.865 34.5597C129.167 33.4453 127.124 32.8881 124.736 32.8881C122.454 32.8881 120.437 33.4453 118.686 34.5597C116.988 35.6211 115.661 37.0539 114.706 38.8582C113.75 40.6625 113.273 42.6526 113.273 44.8284C113.273 46.898 113.75 48.8615 114.706 50.7189C115.661 52.5232 116.988 53.9826 118.686 55.097C120.437 56.2115 122.454 56.7687 124.736 56.7687Z" fill="black"/>
</svg>
