<svg width="335" height="66" viewBox="0 0 335 66" fill="none" xmlns="http://www.w3.org/2000/svg">
<g clip-path="url(#clip0_1740_31)">
<mask id="mask0_1740_31" style="mask-type:alpha" maskUnits="userSpaceOnUse" x="1" y="1" width="64" height="64">
<path d="M64.2435 33.0914C64.2435 50.5498 50.0887 64.7046 32.6303 64.7046C15.1718 64.7046 1.01709 50.5498 1.01709 33.0914C1.01709 17.4673 12.3476 4.49222 27.2403 1.9376C28.9926 1.63464 30.7959 1.47705 32.6314 1.47705C49.2831 1.47705 62.9274 14.3523 64.1503 30.6888V30.701C64.2135 31.4889 64.2446 32.2901 64.2446 33.0903L64.2435 33.0914Z" fill="#3388F8"/>
</mask>
<g mask="url(#mask0_1740_31)">
<path d="M64.2437 33.0915C64.2437 50.55 50.0889 64.7047 32.6305 64.7047C15.172 64.7047 1.01726 50.55 1.01726 33.0915C1.01726 17.4675 12.3477 4.49238 27.2405 1.93776C28.9927 1.6348 30.7961 1.47721 32.6316 1.47721C49.2832 1.47721 62.9275 14.3524 64.1505 30.6889V30.7011C64.2137 31.4891 64.2448 32.2903 64.2448 33.0904L64.2437 33.0915Z" fill="#2CA4F4"/>
<path d="M66.0737 33.5877C65.8504 33.7119 65.5691 33.7538 65.2149 33.6621C64.7697 33.5464 64.3541 33.3303 63.9721 33.1317C62.8773 32.5624 62.0591 32.137 61.6149 34.6331C61.0156 38.0067 50.8271 39.6514 45.3605 38.2331C39.8939 36.8082 41.0924 34.0338 43.1155 32.0863C44.3137 30.9289 42.8188 29.1648 41.4071 27.4989C40.4418 26.3598 39.5154 25.2666 39.5154 24.4446C39.5154 23.5561 40.4546 23.275 41.5271 22.9541C42.8979 22.5439 44.4864 22.0686 44.6103 20.1765C44.8378 16.8096 38.7344 15.7068 32.8894 15.4105C27.8953 15.1516 29.1245 6.59832 29.7518 4.14304C29.5415 4.175 29.9606 -2.79947 29.7518 -2.76336C26.332 -3.15046 24.3 -14.5101 17.4621 -5.97983C16.112 -5.98 13.9019 -10.7803 11.6414 -6.4289C7.5266 -6.31137 6.38406 -4.92298 12.9412 0.863011C13.5063 4.56949 6.11647 1.33724 3.95542 4.14304C1.65912 7.12444 2.94786 15.1733 2.03447 18.9467C3.46035 19.4835 7.98933 29.786 7.65353 31.8016C7.20409 34.4983 6.75466 37.9596 8.8898 38.9817C11.0249 40.0037 13.3843 44.1619 11.4744 45.6224C10.775 46.1572 10.3908 47.2291 10.0111 48.2884C9.41379 49.9546 8.82765 51.5898 7.04329 51.0553C10.5296 57.1587 15.9914 61.9883 22.5574 64.673C22.3915 63.2806 22.1737 60.7174 22.6818 59.8343C22.9574 59.3555 23.4465 59.1802 23.9816 58.9884C24.8279 58.685 25.7892 58.3404 26.2019 56.6882C26.5021 55.4884 26.4017 53.8882 26.3065 52.3725C26.1877 50.4814 26.0772 48.7217 26.7635 48.0355C27.4024 47.3966 28.1613 48.0482 29.0867 48.8427C29.9519 49.5856 30.9626 50.4533 32.1568 50.508C32.9567 50.5443 34.0858 50.2983 35.3578 50.0212C38.0173 49.4418 41.3013 48.7263 43.5062 50.1707C46.7644 52.3058 53.1698 56.3509 54.7434 55.0025C56.0437 53.8884 57.5956 55.7666 58.0955 56.4525C60.1501 54.1527 63.163 53.0002 64.4798 50.1707C64.7589 49.5709 63.7302 47.3625 63.9721 46.743C64.58 45.1862 65.7169 45.5829 66.0737 43.9174C66.1817 43.4132 65.2622 40.2442 65.61 40.4702C65.8152 39.2127 67.0838 38.1562 67.1359 36.8535C67.1529 36.4272 66.0737 36.2102 66.0737 35.7798L66.7968 35.1016C66.7968 34.4968 66.1097 34.1876 66.0737 33.5877Z" fill="#61D6FF"/>
<path fill-rule="evenodd" clip-rule="evenodd" d="M21.1518 48.439C38.6102 48.439 52.765 34.2843 52.765 16.8258L52.7661 16.8247C52.7661 16.0246 52.735 15.2234 52.6718 14.4354V14.4232C52.5221 12.4238 52.1864 10.4762 51.6818 8.59767C58.9282 13.9063 63.8289 22.2272 64.5392 31.7158V31.728C64.6025 32.5159 64.6336 33.3171 64.6336 34.1173L64.6324 34.1184C64.6324 51.5768 50.4777 65.7316 33.0192 65.7316C18.4056 65.7316 6.10666 55.8139 2.48656 42.3427C7.71746 46.1756 14.1705 48.439 21.1518 48.439Z" fill="black" fill-opacity="0.2"/>
<path d="M36.0464 6.77011C18.592 7.18611 4.77775 21.6749 5.19375 39.1293L5.19266 39.1304C5.21173 39.9303 5.2619 40.7306 5.34391 41.5169L5.3442 41.5291C5.81577 46.2987 7.3431 50.7468 9.68495 54.6433C4.72266 49.64 1.41488 42.9791 0.678896 35.535L0.678605 35.5228C0.59659 34.7365 0.546423 33.9362 0.527357 33.1363L0.528441 33.1351C0.112441 15.6807 13.9266 1.192 31.3811 0.775996C43.1589 0.495288 53.5864 6.69395 59.251 16.1183C53.3441 10.1621 45.0936 6.55448 36.0464 6.77011Z" fill="white" fill-opacity="0.2"/>
</g>
<path d="M294.402 50.6765L284.438 18.6905H294.156L298.278 36.8364C298.442 37.6155 298.606 38.4357 298.77 39.2969C298.975 40.117 299.139 40.9167 299.262 41.6958C299.508 40.0555 299.856 38.4152 300.308 36.7749L304.982 18.6905H314.517L319.499 36.7749C319.95 38.4152 320.299 40.0555 320.545 41.6958C320.668 40.9167 320.811 40.117 320.975 39.2969C321.181 38.4357 321.365 37.6155 321.529 36.8364L325.958 18.6905H335L325.035 50.6765H316.055L310.826 32.4691C310.334 30.8698 309.965 29.2705 309.719 27.6712C309.596 28.4503 309.452 29.25 309.288 30.0701C309.124 30.8903 308.94 31.6899 308.735 32.4691L303.937 50.6765H294.402Z" fill="white"/>
<path d="M269.015 51.4761C265.734 51.4761 262.843 50.7175 260.341 49.2002C257.84 47.6829 255.892 45.6735 254.498 43.1721C253.145 40.6296 252.468 37.8206 252.468 34.745C252.468 31.6694 253.186 28.8604 254.621 26.3179C256.056 23.7344 258.004 21.684 260.464 20.1668C262.966 18.6495 265.816 17.8908 269.015 17.8908C272.213 17.8908 275.022 18.6495 277.442 20.1668C279.902 21.684 281.809 23.7344 283.162 26.3179C284.556 28.8604 285.254 31.6694 285.254 34.745C285.254 35.1961 285.233 35.6677 285.192 36.1598C285.151 36.6519 285.09 37.1645 285.008 37.6976H261.08C261.531 39.5839 262.433 41.1217 263.786 42.3109C265.18 43.5001 266.923 44.0948 269.015 44.0948C270.819 44.0948 272.377 43.6847 273.689 42.8645C275.043 42.0444 276.088 41.0192 276.826 39.7889L283.285 44.6484C282.014 46.6577 280.107 48.298 277.565 49.5693C275.022 50.8405 272.172 51.4761 269.015 51.4761ZM268.891 25.0262C266.923 25.0262 265.242 25.6208 263.848 26.81C262.453 27.9992 261.531 29.5575 261.08 31.4849H276.888C276.437 29.7216 275.494 28.2043 274.058 26.933C272.664 25.6618 270.942 25.0262 268.891 25.0262Z" fill="white"/>
<path d="M244.604 16.0455C243.21 16.0455 242.021 15.5739 241.036 14.6307C240.093 13.6465 239.622 12.4778 239.622 11.1246C239.622 9.81231 240.093 8.68459 241.036 7.74142C242.021 6.75723 243.21 6.26514 244.604 6.26514C246.039 6.26514 247.229 6.75723 248.172 7.74142C249.115 8.68459 249.586 9.81231 249.586 11.1246C249.586 12.5188 249.115 13.6875 248.172 14.6307C247.229 15.5739 246.039 16.0455 244.604 16.0455ZM240.483 50.6765V18.6905H248.787V50.6765H240.483Z" fill="white"/>
<path d="M217.289 50.6765L203.941 18.6905H213.783L220.18 36.9594C220.754 38.5997 221.205 40.3015 221.533 42.0649C221.861 40.3015 222.313 38.5997 222.887 36.9594L229.284 18.6905H238.941L225.655 50.6765H217.289Z" fill="white"/>
<path d="M188.532 51.4761C185.252 51.4761 182.32 50.7175 179.736 49.2002C177.153 47.6829 175.123 45.6735 173.647 43.1721C172.211 40.6296 171.494 37.8206 171.494 34.745C171.494 31.6694 172.211 28.8604 173.647 26.3179C175.123 23.7754 177.153 21.7455 179.736 20.2283C182.32 18.711 185.252 17.9523 188.532 17.9523C191.854 17.9523 194.786 18.711 197.329 20.2283C199.912 21.7455 201.921 23.7754 203.357 26.3179C204.833 28.8604 205.571 31.6694 205.571 34.745C205.571 37.8206 204.833 40.6296 203.357 43.1721C201.921 45.6735 199.912 47.6829 197.329 49.2002C194.786 50.7175 191.854 51.4761 188.532 51.4761ZM188.532 43.9102C190.296 43.9102 191.834 43.5001 193.146 42.68C194.458 41.8188 195.463 40.6911 196.16 39.2969C196.898 37.9026 197.267 36.3853 197.267 34.745C197.267 33.0637 196.898 31.5259 196.16 30.1316C195.463 28.7374 194.458 27.6302 193.146 26.81C191.834 25.9488 190.296 25.5183 188.532 25.5183C186.769 25.5183 185.231 25.9488 183.919 26.81C182.607 27.6302 181.582 28.7374 180.843 30.1316C180.146 31.5259 179.798 33.0637 179.798 34.745C179.798 36.3853 180.146 37.9026 180.843 39.2969C181.582 40.6911 182.607 41.8188 183.919 42.68C185.231 43.5001 186.769 43.9102 188.532 43.9102Z" fill="white"/>
<path d="M153.562 50.6765V18.6905H161.62V24.7801C162.153 22.4837 163.239 20.7409 164.88 19.5516C166.52 18.3214 168.734 17.7883 171.523 17.9523V25.7643H170.354C167.976 25.7643 165.966 26.5229 164.326 28.0402C162.686 29.5575 161.866 31.6489 161.866 34.3144V50.6765H153.562Z" fill="white"/>
<path d="M133.677 51.4761C130.396 51.4761 127.505 50.7175 125.004 49.2002C122.502 47.6829 120.555 45.6735 119.16 43.1721C117.807 40.6296 117.13 37.8206 117.13 34.745C117.13 31.6694 117.848 28.8604 119.283 26.3179C120.719 23.7344 122.666 21.684 125.127 20.1668C127.628 18.6495 130.478 17.8908 133.677 17.8908C136.876 17.8908 139.685 18.6495 142.104 20.1668C144.565 21.684 146.471 23.7344 147.825 26.3179C149.219 28.8604 149.916 31.6694 149.916 34.745C149.916 35.1961 149.896 35.6677 149.855 36.1598C149.814 36.6519 149.752 37.1645 149.67 37.6976H125.742C126.193 39.5839 127.095 41.1217 128.449 42.3109C129.843 43.5001 131.586 44.0948 133.677 44.0948C135.481 44.0948 137.04 43.6847 138.352 42.8645C139.705 42.0444 140.751 41.0192 141.489 39.7889L147.948 44.6484C146.676 46.6577 144.77 48.298 142.227 49.5693C139.685 50.8405 136.835 51.4761 133.677 51.4761ZM133.554 25.0262C131.586 25.0262 129.904 25.6208 128.51 26.81C127.116 27.9992 126.193 29.5575 125.742 31.4849H141.551C141.099 29.7216 140.156 28.2043 138.721 26.933C137.327 25.6618 135.604 25.0262 133.554 25.0262Z" fill="white"/>
<path d="M95.0348 51.4761C92.1232 51.4761 89.4577 50.738 87.0383 49.2617C84.6598 47.7444 82.753 45.7351 81.3177 43.2336C79.9234 40.6911 79.2263 37.8821 79.2263 34.8065C79.2263 32.5101 79.6364 30.3572 80.4565 28.3478C81.2767 26.2974 82.4044 24.5136 83.8397 22.9963C85.275 21.438 86.9358 20.2283 88.8221 19.3671C90.7495 18.4649 92.8204 18.0138 95.0348 18.0138C97.8233 18.0138 99.9967 18.5469 101.555 19.6132C103.113 20.6383 104.323 22.0121 105.184 23.7344V18.6905H113.427V50.6765H105.369V45.448C104.508 47.2523 103.277 48.7081 101.678 49.8153C100.12 50.9225 97.9053 51.4761 95.0348 51.4761ZM96.3881 43.9717C98.2334 43.9717 99.8122 43.5617 101.124 42.7415C102.478 41.8803 103.523 40.7526 104.262 39.3584C105 37.9641 105.369 36.4468 105.369 34.8065C105.369 33.1252 105 31.5874 104.262 30.1931C103.523 28.7989 102.478 27.6712 101.124 26.81C99.8122 25.9488 98.2334 25.5183 96.3881 25.5183C94.6247 25.5183 93.0664 25.9488 91.7132 26.81C90.4009 27.6302 89.3757 28.7374 88.6376 30.1316C87.8995 31.5259 87.5304 33.0637 87.5304 34.745C87.5304 36.3443 87.8995 37.8616 88.6376 39.2969C89.3757 40.6911 90.4009 41.8188 91.7132 42.68C93.0664 43.5411 94.6247 43.9717 96.3881 43.9717Z" fill="white"/>
</g>
<defs>
<clipPath id="clip0_1740_31">
<rect width="335" height="66" fill="white"/>
</clipPath>
</defs>
</svg>
