<svg width="364" height="158" viewBox="0 0 364 158" fill="none" xmlns="http://www.w3.org/2000/svg">
<path d="M328.504 38.4808H353.943C354.816 38.4808 355.544 38.8083 356.127 39.4634C356.709 40.0457 357 40.7736 357 41.647C357 42.4477 356.709 43.1391 356.127 43.7214C355.544 44.3037 354.816 44.5949 353.943 44.5949H328.504C327.63 44.5949 326.866 44.3037 326.211 43.7214C325.629 43.0664 325.338 42.3385 325.338 41.5378C325.338 40.6644 325.629 39.9365 326.211 39.3542C326.866 38.7719 327.63 38.4808 328.504 38.4808ZM339.75 23.0863C340.696 23.0863 341.46 23.4138 342.042 24.0689C342.697 24.724 343.025 25.4883 343.025 26.3617V81.1704C343.025 83.2085 343.28 84.737 343.789 85.756C344.372 86.7751 345.099 87.4665 345.973 87.8305C346.846 88.1216 347.72 88.2672 348.593 88.2672C349.175 88.2672 349.685 88.1944 350.122 88.0488C350.631 87.8305 351.177 87.7213 351.759 87.7213C352.414 87.7213 352.96 87.976 353.397 88.4856C353.907 88.9951 354.161 89.6501 354.161 90.4508C354.161 91.4698 353.579 92.3433 352.414 93.0711C351.25 93.7262 349.867 94.0538 348.266 94.0538C347.611 94.0538 346.628 94.0174 345.318 93.9446C344.008 93.799 342.661 93.3987 341.278 92.7436C339.895 92.0157 338.731 90.7783 337.784 89.0315C336.911 87.2846 336.474 84.7734 336.474 81.498V26.3617C336.474 25.4883 336.765 24.724 337.348 24.0689C338.003 23.4138 338.803 23.0863 339.75 23.0863Z" fill="#3912C5"/>
<path d="M277.762 85.2101C277.18 84.3367 276.889 83.4996 276.889 82.699C276.961 81.8255 277.435 81.1341 278.308 80.6245C278.89 80.115 279.545 79.8967 280.273 79.9695C281.074 80.0422 281.802 80.4062 282.457 81.0613C284.422 83.6088 286.788 85.6833 289.554 87.2846C292.392 88.8131 295.741 89.5774 299.598 89.5774C301.636 89.5774 303.638 89.2498 305.603 88.5947C307.641 87.8669 309.315 86.8115 310.626 85.4285C311.936 83.9728 312.591 82.1531 312.591 79.9695C312.591 77.7131 311.936 75.8934 310.626 74.5104C309.315 73.1275 307.605 72.0357 305.494 71.235C303.456 70.4343 301.272 69.7429 298.943 69.1606C296.468 68.5055 294.066 67.7776 291.737 66.9769C289.408 66.1035 287.334 65.0481 285.514 63.8107C283.767 62.5005 282.348 60.9356 281.256 59.1159C280.164 57.2963 279.618 55.0762 279.618 52.4559C279.618 49.3988 280.455 46.7057 282.129 44.3765C283.803 42.0473 286.06 40.2277 288.899 38.9175C291.81 37.6073 295.085 36.9522 298.725 36.9522C300.545 36.9522 302.51 37.207 304.621 37.7165C306.731 38.1532 308.806 38.9175 310.844 40.0093C312.882 41.1011 314.702 42.5932 316.303 44.4857C316.958 45.1408 317.286 45.9051 317.286 46.7785C317.286 47.5792 316.922 48.307 316.194 48.9621C315.611 49.3988 314.92 49.6172 314.119 49.6172C313.391 49.6172 312.773 49.3261 312.263 48.7438C310.516 46.7785 308.442 45.2864 306.04 44.2673C303.638 43.2483 301.054 42.7388 298.288 42.7388C296.177 42.7388 294.176 43.1028 292.283 43.8306C290.463 44.4857 288.935 45.5047 287.698 46.8877C286.46 48.2706 285.841 50.0903 285.841 52.3467C285.987 54.4576 286.715 56.1681 288.025 57.4782C289.408 58.7884 291.191 59.8802 293.375 60.7536C295.631 61.6271 298.143 62.4277 300.908 63.1556C303.238 63.7379 305.458 64.4294 307.568 65.2301C309.752 66.0307 311.645 67.0497 313.246 68.2871C314.92 69.4517 316.23 70.9438 317.176 72.7635C318.195 74.5832 318.705 76.876 318.705 79.6419C318.705 82.8445 317.795 85.6105 315.975 87.9397C314.228 90.2688 311.863 92.0521 308.879 93.2895C305.894 94.5269 302.583 95.1456 298.943 95.1456C295.013 95.1456 291.191 94.3813 287.479 92.8528C283.84 91.3243 280.601 88.7767 277.762 85.2101Z" fill="#3912C5"/>
<path d="M244.415 95.1456C238.811 95.1456 233.861 93.9446 229.567 91.5426C225.272 89.1406 221.924 85.7924 219.522 81.498C217.12 77.2035 215.919 72.1812 215.919 66.431C215.919 60.2441 217.12 54.9671 219.522 50.5998C221.997 46.2326 225.163 42.8844 229.021 40.5552C232.951 38.1532 237.1 36.9522 241.467 36.9522C244.67 36.9522 247.763 37.5345 250.748 38.6991C253.805 39.7909 256.498 41.465 258.827 43.7214C261.229 45.9051 263.121 48.5982 264.504 51.8008C265.96 55.0035 266.761 58.7156 266.906 62.9373C266.834 63.8107 266.47 64.575 265.815 65.2301C265.159 65.8124 264.395 66.1035 263.522 66.1035H219.74L218.43 60.2077H261.447L260.028 61.5179V59.3343C259.737 55.9133 258.645 53.0018 256.753 50.5998C254.86 48.1979 252.567 46.3782 249.874 45.1408C247.181 43.9034 244.379 43.2847 241.467 43.2847C239.284 43.2847 237.027 43.7214 234.698 44.5949C232.442 45.4683 230.367 46.8513 228.475 48.7438C226.655 50.5634 225.163 52.929 223.998 55.8405C222.834 58.6792 222.251 62.0638 222.251 65.9943C222.251 70.2888 223.125 74.1829 224.872 77.6767C226.619 81.1705 229.13 83.9364 232.405 85.9744C235.753 88.0124 239.72 89.0315 244.306 89.0315C246.853 89.0315 249.146 88.6675 251.184 87.9397C253.222 87.2118 255.006 86.2655 256.534 85.101C258.063 83.8636 259.336 82.5898 260.356 81.2796C261.156 80.6245 261.957 80.297 262.757 80.297C263.485 80.297 264.104 80.5881 264.614 81.1704C265.196 81.7527 265.487 82.4078 265.487 83.1357C265.487 84.0091 265.123 84.7734 264.395 85.4285C262.212 88.0488 259.373 90.3416 255.879 92.3069C252.385 94.1993 248.564 95.1456 244.415 95.1456Z" fill="#3912C5"/>
<path d="M179.127 38.4808H204.566C205.439 38.4808 206.167 38.8083 206.749 39.4634C207.332 40.0457 207.623 40.7736 207.623 41.647C207.623 42.4477 207.332 43.1391 206.749 43.7214C206.167 44.3037 205.439 44.5949 204.566 44.5949H179.127C178.253 44.5949 177.489 44.3037 176.834 43.7214C176.252 43.0664 175.96 42.3385 175.96 41.5378C175.96 40.6644 176.252 39.9365 176.834 39.3542C177.489 38.7719 178.253 38.4808 179.127 38.4808ZM190.372 23.0863C191.319 23.0863 192.083 23.4138 192.665 24.0689C193.32 24.724 193.648 25.4883 193.648 26.3617V81.1704C193.648 83.2085 193.902 84.737 194.412 85.756C194.994 86.7751 195.722 87.4665 196.596 87.8305C197.469 88.1216 198.343 88.2672 199.216 88.2672C199.798 88.2672 200.308 88.1944 200.744 88.0488C201.254 87.8305 201.8 87.7213 202.382 87.7213C203.037 87.7213 203.583 87.976 204.02 88.4856C204.529 88.9951 204.784 89.6501 204.784 90.4508C204.784 91.4698 204.202 92.3433 203.037 93.0711C201.873 93.7262 200.49 94.0538 198.888 94.0538C198.233 94.0538 197.251 94.0174 195.941 93.9446C194.63 93.799 193.284 93.3987 191.901 92.7436C190.518 92.0157 189.353 90.7783 188.407 89.0315C187.534 87.2846 187.097 84.7734 187.097 81.498V26.3617C187.097 25.4883 187.388 24.724 187.97 24.0689C188.625 23.4138 189.426 23.0863 190.372 23.0863Z" fill="#3912C5"/>
<path d="M165.712 90.7784C165.712 91.6518 165.384 92.4161 164.729 93.0712C164.074 93.7262 163.31 94.0538 162.436 94.0538C161.49 94.0538 160.69 93.7262 160.034 93.0712C159.452 92.4161 159.161 91.6518 159.161 90.7784V40.5552C159.161 39.6818 159.452 38.9175 160.034 38.2624C160.69 37.6073 161.49 37.2798 162.436 37.2798C163.383 37.2798 164.147 37.6073 164.729 38.2624C165.384 38.9175 165.712 39.6818 165.712 40.5552V90.7784ZM162.436 29.9647C160.908 29.9647 159.743 29.6371 158.943 28.982C158.215 28.2542 157.851 27.2352 157.851 25.925V24.8332C157.851 23.523 158.251 22.5404 159.052 21.8853C159.925 21.1574 161.09 20.7935 162.546 20.7935C163.929 20.7935 164.984 21.1574 165.712 21.8853C166.513 22.5404 166.913 23.523 166.913 24.8332V25.925C166.913 27.2352 166.513 28.2542 165.712 28.982C164.984 29.6371 163.892 29.9647 162.436 29.9647Z" fill="black"/>
<path d="M104.881 94.0538C103.935 94.0538 103.134 93.7262 102.479 93.0712C101.897 92.4161 101.606 91.6518 101.606 90.7784V16.5354C101.606 15.662 101.897 14.8977 102.479 14.2426C103.134 13.5876 103.935 13.26 104.881 13.26C105.827 13.26 106.592 13.5876 107.174 14.2426C107.829 14.8977 108.157 15.662 108.157 16.5354V90.7784C108.157 91.6518 107.829 92.4161 107.174 93.0712C106.592 93.7262 105.827 94.0538 104.881 94.0538ZM142.003 38.044C142.803 38.044 143.531 38.408 144.186 39.1358C144.841 39.7909 145.169 40.5188 145.169 41.3195C145.169 42.2657 144.769 43.1028 143.968 43.8306L107.283 75.0563L106.956 67.3045L139.71 39.1358C140.365 38.408 141.129 38.044 142.003 38.044ZM142.876 94.0538C141.93 94.0538 141.129 93.6534 140.474 92.8528L115.581 66.431L120.494 61.9546L145.169 88.2672C145.824 88.9951 146.151 89.8321 146.151 90.7784C146.151 91.7974 145.751 92.598 144.95 93.1803C144.15 93.7626 143.458 94.0538 142.876 94.0538Z" fill="black"/>
<path d="M51.9869 17.5534L18.8047 99.3566M9.00258 32.0643L74.0123 59.6603M7.01941 31.6898L18.1732 100.605L74.1841 58.9341L51.9666 17.2945L7.01941 31.6898Z" stroke="black" stroke-width="8"/>
</svg>
