<svg width="528" height="205" viewBox="0 0 528 205" fill="none" xmlns="http://www.w3.org/2000/svg">
<g clip-path="url(#clip0_858_39)">
<path d="M155.365 125C154.056 125 152.949 124.547 152.043 123.641C151.238 122.735 150.835 121.678 150.835 120.47V17.79C150.835 16.582 151.238 15.525 152.043 14.619C152.949 13.713 154.056 13.26 155.365 13.26C156.674 13.26 157.731 13.713 158.536 14.619C159.442 15.525 159.895 16.582 159.895 17.79V120.47C159.895 121.678 159.442 122.735 158.536 123.641C157.731 124.547 156.674 125 155.365 125ZM206.705 47.537C207.812 47.537 208.819 48.0403 209.725 49.047C210.631 49.953 211.084 50.9597 211.084 52.067C211.084 53.3757 210.53 54.5333 209.423 55.54L158.687 98.726L158.234 88.005L203.534 49.047C204.44 48.0403 205.497 47.537 206.705 47.537ZM207.913 125C206.604 125 205.497 124.446 204.591 123.339L170.163 86.797L176.958 80.606L211.084 116.997C211.99 118.004 212.443 119.161 212.443 120.47C212.443 121.879 211.889 122.987 210.782 123.792C209.675 124.597 208.718 125 207.913 125ZM239.496 120.47C239.496 121.678 239.043 122.735 238.137 123.641C237.231 124.547 236.174 125 234.966 125C233.657 125 232.55 124.547 231.644 123.641C230.838 122.735 230.436 121.678 230.436 120.47V51.01C230.436 49.802 230.838 48.745 231.644 47.839C232.55 46.933 233.657 46.48 234.966 46.48C236.274 46.48 237.331 46.933 238.137 47.839C239.043 48.745 239.496 49.802 239.496 51.01V120.47ZM234.966 36.363C232.852 36.363 231.241 35.91 230.134 35.004C229.127 33.9973 228.624 32.588 228.624 30.776V29.266C228.624 27.454 229.177 26.095 230.285 25.189C231.493 24.1823 233.103 23.679 235.117 23.679C237.029 23.679 238.489 24.1823 239.496 25.189C240.603 26.095 241.157 27.454 241.157 29.266V30.776C241.157 32.588 240.603 33.9973 239.496 35.004C238.489 35.91 236.979 36.363 234.966 36.363Z" fill="white"/>
<path d="M258.049 48.141H293.232C294.44 48.141 295.446 48.594 296.252 49.5C297.057 50.3053 297.46 51.312 297.46 52.52C297.46 53.6273 297.057 54.5837 296.252 55.389C295.446 56.1943 294.44 56.597 293.232 56.597H258.049C256.841 56.597 255.784 56.1943 254.878 55.389C254.072 54.483 253.67 53.4763 253.67 52.369C253.67 51.161 254.072 50.1543 254.878 49.349C255.784 48.5437 256.841 48.141 258.049 48.141ZM273.602 26.85C274.91 26.85 275.967 27.303 276.773 28.209C277.679 29.115 278.132 30.172 278.132 31.38V107.182C278.132 110.001 278.484 112.115 279.189 113.524C279.994 114.933 281.001 115.89 282.209 116.393C283.417 116.796 284.625 116.997 285.833 116.997C286.638 116.997 287.343 116.896 287.947 116.695C288.651 116.393 289.406 116.242 290.212 116.242C291.118 116.242 291.873 116.594 292.477 117.299C293.181 118.004 293.534 118.91 293.534 120.017C293.534 121.426 292.728 122.634 291.118 123.641C289.507 124.547 287.594 125 285.38 125C284.474 125 283.115 124.95 281.303 124.849C279.491 124.648 277.628 124.094 275.716 123.188C273.803 122.181 272.192 120.47 270.884 118.054C269.676 115.638 269.072 112.165 269.072 107.635V31.38C269.072 30.172 269.474 29.115 270.28 28.209C271.186 27.303 272.293 26.85 273.602 26.85ZM348.344 126.51C340.593 126.51 333.748 124.849 327.808 121.527C321.869 118.205 317.238 113.574 313.916 107.635C310.594 101.696 308.933 94.7497 308.933 86.797C308.933 78.2403 310.594 70.942 313.916 64.902C317.339 58.862 321.718 54.2313 327.053 51.01C332.489 47.688 338.227 46.027 344.267 46.027C348.697 46.027 352.975 46.8323 357.102 48.443C361.33 49.953 365.055 52.2683 368.276 55.389C371.598 58.409 374.216 62.1337 376.128 66.563C378.142 70.9923 379.249 76.1263 379.45 81.965C379.35 83.173 378.846 84.23 377.94 85.136C377.034 85.9413 375.977 86.344 374.769 86.344H314.218L312.406 78.19H371.9L369.937 80.002V76.982C369.535 72.2507 368.025 68.224 365.407 64.902C362.79 61.58 359.619 59.0633 355.894 57.352C352.17 55.6407 348.294 54.785 344.267 54.785C341.247 54.785 338.127 55.389 334.905 56.597C331.785 57.805 328.916 59.7177 326.298 62.335C323.782 64.8517 321.718 68.1233 320.107 72.15C318.497 76.076 317.691 80.757 317.691 86.193C317.691 92.1323 318.899 97.518 321.315 102.35C323.731 107.182 327.204 111.007 331.734 113.826C336.365 116.645 341.851 118.054 348.193 118.054C351.717 118.054 354.888 117.551 357.706 116.544C360.525 115.537 362.991 114.229 365.105 112.618C367.219 110.907 368.981 109.145 370.39 107.333C371.498 106.427 372.605 105.974 373.712 105.974C374.719 105.974 375.575 106.377 376.279 107.182C377.085 107.987 377.487 108.893 377.487 109.9C377.487 111.108 376.984 112.165 375.977 113.071C372.957 116.695 369.031 119.866 364.199 122.584C359.367 125.201 354.082 126.51 348.344 126.51ZM394.464 112.769C393.659 111.561 393.256 110.403 393.256 109.296C393.357 108.088 394.011 107.132 395.219 106.427C396.024 105.722 396.93 105.42 397.937 105.521C399.044 105.622 400.051 106.125 400.957 107.031C403.675 110.554 406.947 113.423 410.772 115.638C414.698 117.752 419.329 118.809 424.664 118.809C427.483 118.809 430.251 118.356 432.969 117.45C435.788 116.443 438.103 114.984 439.915 113.071C441.727 111.058 442.633 108.541 442.633 105.521C442.633 102.4 441.727 99.8837 439.915 97.971C438.103 96.0583 435.737 94.5483 432.818 93.441C429.999 92.3337 426.979 91.3773 423.758 90.572C420.335 89.666 417.013 88.6593 413.792 87.552C410.571 86.344 407.702 84.8843 405.185 83.173C402.769 81.361 400.806 79.1967 399.296 76.68C397.786 74.1633 397.031 71.093 397.031 67.469C397.031 63.241 398.189 59.5163 400.504 56.295C402.819 53.0737 405.94 50.557 409.866 48.745C413.893 46.933 418.423 46.027 423.456 46.027C425.973 46.027 428.691 46.3793 431.61 47.084C434.529 47.688 437.398 48.745 440.217 50.255C443.036 51.765 445.552 53.8287 447.767 56.446C448.673 57.352 449.126 58.409 449.126 59.617C449.126 60.7243 448.623 61.731 447.616 62.637C446.811 63.241 445.854 63.543 444.747 63.543C443.74 63.543 442.885 63.1403 442.18 62.335C439.764 59.617 436.895 57.5533 433.573 56.144C430.251 54.7347 426.677 54.03 422.852 54.03C419.933 54.03 417.164 54.5333 414.547 55.54C412.03 56.446 409.916 57.8553 408.205 59.768C406.494 61.6807 405.638 64.1973 405.638 67.318C405.839 70.2373 406.846 72.603 408.658 74.415C410.571 76.227 413.037 77.737 416.057 78.945C419.178 80.153 422.651 81.2603 426.476 82.267C429.697 83.0723 432.768 84.0287 435.687 85.136C438.707 86.2433 441.324 87.6527 443.539 89.364C445.854 90.9747 447.666 93.0383 448.975 95.555C450.384 98.0717 451.089 101.243 451.089 105.068C451.089 109.497 449.831 113.323 447.314 116.544C444.898 119.765 441.626 122.232 437.499 123.943C433.372 125.654 428.791 126.51 423.758 126.51C418.322 126.51 413.037 125.453 407.903 123.339C402.87 121.225 398.39 117.702 394.464 112.769ZM464.641 48.141H499.824C501.032 48.141 502.039 48.594 502.844 49.5C503.65 50.3053 504.052 51.312 504.052 52.52C504.052 53.6273 503.65 54.5837 502.844 55.389C502.039 56.1943 501.032 56.597 499.824 56.597H464.641C463.433 56.597 462.376 56.1943 461.47 55.389C460.665 54.483 460.262 53.4763 460.262 52.369C460.262 51.161 460.665 50.1543 461.47 49.349C462.376 48.5437 463.433 48.141 464.641 48.141ZM480.194 26.85C481.503 26.85 482.56 27.303 483.365 28.209C484.271 29.115 484.724 30.172 484.724 31.38V107.182C484.724 110.001 485.077 112.115 485.781 113.524C486.587 114.933 487.593 115.89 488.801 116.393C490.009 116.796 491.217 116.997 492.425 116.997C493.231 116.997 493.935 116.896 494.539 116.695C495.244 116.393 495.999 116.242 496.804 116.242C497.71 116.242 498.465 116.594 499.069 117.299C499.774 118.004 500.126 118.91 500.126 120.017C500.126 121.426 499.321 122.634 497.71 123.641C496.1 124.547 494.187 125 491.972 125C491.066 125 489.707 124.95 487.895 124.849C486.083 124.648 484.221 124.094 482.308 123.188C480.396 122.181 478.785 120.47 477.476 118.054C476.268 115.638 475.664 112.165 475.664 107.635V31.38C475.664 30.172 476.067 29.115 476.872 28.209C477.778 27.303 478.886 26.85 480.194 26.85Z" fill="#3912C5"/>
<path d="M35.4453 134.06L20.0194 38.7489L82.1826 18.8399L112.91 76.4285L35.4453 134.06Z" stroke="white" stroke-width="8"/>
<path d="M82.2107 19.1979L36.3188 132.334" stroke="white" stroke-width="8"/>
<path d="M22.7622 39.2669L112.672 77.4329" stroke="white" stroke-width="8"/>
</g>
<defs>
<clipPath id="clip0_858_39">
<rect width="528" height="205" fill="white"/>
</clipPath>
</defs>
</svg>
