<svg width="348" height="134" viewBox="0 0 348 134" fill="none" xmlns="http://www.w3.org/2000/svg">
<path d="M311.504 38.4808H336.943C337.816 38.4808 338.544 38.8083 339.127 39.4634C339.709 40.0457 340 40.7736 340 41.647C340 42.4477 339.709 43.1391 339.127 43.7214C338.544 44.3037 337.816 44.5949 336.943 44.5949H311.504C310.63 44.5949 309.866 44.3037 309.211 43.7214C308.629 43.0664 308.338 42.3385 308.338 41.5378C308.338 40.6644 308.629 39.9365 309.211 39.3542C309.866 38.7719 310.63 38.4808 311.504 38.4808ZM322.75 23.0863C323.696 23.0863 324.46 23.4138 325.042 24.0689C325.697 24.724 326.025 25.4883 326.025 26.3617V81.1704C326.025 83.2085 326.28 84.737 326.789 85.756C327.372 86.7751 328.099 87.4665 328.973 87.8305C329.846 88.1216 330.72 88.2672 331.593 88.2672C332.175 88.2672 332.685 88.1944 333.122 88.0488C333.631 87.8305 334.177 87.7213 334.759 87.7213C335.414 87.7213 335.96 87.976 336.397 88.4856C336.907 88.9951 337.161 89.6501 337.161 90.4508C337.161 91.4698 336.579 92.3433 335.414 93.0711C334.25 93.7262 332.867 94.0538 331.266 94.0538C330.611 94.0538 329.628 94.0174 328.318 93.9446C327.008 93.799 325.661 93.3987 324.278 92.7436C322.895 92.0157 321.731 90.7783 320.784 89.0315C319.911 87.2846 319.474 84.7734 319.474 81.498V26.3617C319.474 25.4883 319.765 24.724 320.348 24.0689C321.003 23.4138 321.803 23.0863 322.75 23.0863Z" fill="#6E49F4"/>
<path d="M260.762 85.2101C260.18 84.3367 259.889 83.4996 259.889 82.699C259.961 81.8255 260.435 81.1341 261.308 80.6245C261.89 80.115 262.545 79.8967 263.273 79.9695C264.074 80.0422 264.802 80.4062 265.457 81.0613C267.422 83.6088 269.788 85.6833 272.554 87.2846C275.392 88.8131 278.741 89.5774 282.598 89.5774C284.636 89.5774 286.638 89.2498 288.603 88.5947C290.641 87.8669 292.315 86.8115 293.626 85.4285C294.936 83.9728 295.591 82.1531 295.591 79.9695C295.591 77.7131 294.936 75.8934 293.626 74.5104C292.315 73.1275 290.605 72.0357 288.494 71.235C286.456 70.4343 284.272 69.7429 281.943 69.1606C279.468 68.5055 277.066 67.7776 274.737 66.9769C272.408 66.1035 270.334 65.0481 268.514 63.8107C266.767 62.5005 265.348 60.9356 264.256 59.1159C263.164 57.2963 262.618 55.0762 262.618 52.4559C262.618 49.3988 263.455 46.7057 265.129 44.3765C266.803 42.0473 269.06 40.2277 271.899 38.9175C274.81 37.6073 278.085 36.9522 281.725 36.9522C283.545 36.9522 285.51 37.207 287.621 37.7165C289.731 38.1532 291.806 38.9175 293.844 40.0093C295.882 41.1011 297.702 42.5932 299.303 44.4857C299.958 45.1408 300.286 45.9051 300.286 46.7785C300.286 47.5792 299.922 48.307 299.194 48.9621C298.611 49.3988 297.92 49.6172 297.119 49.6172C296.391 49.6172 295.773 49.3261 295.263 48.7438C293.516 46.7785 291.442 45.2864 289.04 44.2673C286.638 43.2483 284.054 42.7388 281.288 42.7388C279.177 42.7388 277.176 43.1028 275.283 43.8306C273.463 44.4857 271.935 45.5047 270.698 46.8877C269.46 48.2706 268.841 50.0903 268.841 52.3467C268.987 54.4576 269.715 56.1681 271.025 57.4782C272.408 58.7884 274.191 59.8802 276.375 60.7536C278.631 61.6271 281.143 62.4277 283.908 63.1556C286.238 63.7379 288.458 64.4294 290.568 65.2301C292.752 66.0307 294.645 67.0497 296.246 68.2871C297.92 69.4517 299.23 70.9438 300.176 72.7635C301.195 74.5832 301.705 76.876 301.705 79.6419C301.705 82.8445 300.795 85.6105 298.975 87.9397C297.228 90.2688 294.863 92.0521 291.879 93.2895C288.894 94.5269 285.583 95.1456 281.943 95.1456C278.013 95.1456 274.191 94.3813 270.479 92.8528C266.84 91.3243 263.601 88.7767 260.762 85.2101Z" fill="#6E49F4"/>
<path d="M227.415 95.1456C221.811 95.1456 216.861 93.9446 212.567 91.5426C208.272 89.1406 204.924 85.7924 202.522 81.498C200.12 77.2035 198.919 72.1812 198.919 66.431C198.919 60.2441 200.12 54.9671 202.522 50.5998C204.997 46.2326 208.163 42.8844 212.021 40.5552C215.951 38.1532 220.1 36.9522 224.467 36.9522C227.67 36.9522 230.763 37.5345 233.748 38.6991C236.805 39.7909 239.498 41.465 241.827 43.7214C244.229 45.9051 246.121 48.5982 247.504 51.8008C248.96 55.0035 249.761 58.7156 249.906 62.9373C249.834 63.8107 249.47 64.575 248.815 65.2301C248.159 65.8124 247.395 66.1035 246.522 66.1035H202.74L201.43 60.2077H244.447L243.028 61.5179V59.3343C242.737 55.9133 241.645 53.0018 239.753 50.5998C237.86 48.1979 235.567 46.3782 232.874 45.1408C230.181 43.9034 227.379 43.2847 224.467 43.2847C222.284 43.2847 220.027 43.7214 217.698 44.5949C215.442 45.4683 213.367 46.8513 211.475 48.7438C209.655 50.5634 208.163 52.929 206.998 55.8405C205.834 58.6792 205.251 62.0638 205.251 65.9943C205.251 70.2888 206.125 74.1829 207.872 77.6767C209.619 81.1705 212.13 83.9364 215.405 85.9744C218.753 88.0124 222.72 89.0315 227.306 89.0315C229.853 89.0315 232.146 88.6675 234.184 87.9397C236.222 87.2118 238.006 86.2655 239.534 85.101C241.063 83.8636 242.336 82.5898 243.356 81.2796C244.156 80.6245 244.957 80.297 245.757 80.297C246.485 80.297 247.104 80.5881 247.614 81.1704C248.196 81.7527 248.487 82.4078 248.487 83.1357C248.487 84.0091 248.123 84.7734 247.395 85.4285C245.212 88.0488 242.373 90.3416 238.879 92.3069C235.385 94.1993 231.564 95.1456 227.415 95.1456Z" fill="#6E49F4"/>
<path d="M162.127 38.4808H187.566C188.439 38.4808 189.167 38.8083 189.749 39.4634C190.332 40.0457 190.623 40.7736 190.623 41.647C190.623 42.4477 190.332 43.1391 189.749 43.7214C189.167 44.3037 188.439 44.5949 187.566 44.5949H162.127C161.253 44.5949 160.489 44.3037 159.834 43.7214C159.252 43.0664 158.96 42.3385 158.96 41.5378C158.96 40.6644 159.252 39.9365 159.834 39.3542C160.489 38.7719 161.253 38.4808 162.127 38.4808ZM173.372 23.0863C174.319 23.0863 175.083 23.4138 175.665 24.0689C176.32 24.724 176.648 25.4883 176.648 26.3617V81.1704C176.648 83.2085 176.902 84.737 177.412 85.756C177.994 86.7751 178.722 87.4665 179.596 87.8305C180.469 88.1216 181.343 88.2672 182.216 88.2672C182.798 88.2672 183.308 88.1944 183.744 88.0488C184.254 87.8305 184.8 87.7213 185.382 87.7213C186.037 87.7213 186.583 87.976 187.02 88.4856C187.529 88.9951 187.784 89.6501 187.784 90.4508C187.784 91.4698 187.202 92.3433 186.037 93.0711C184.873 93.7262 183.49 94.0538 181.888 94.0538C181.233 94.0538 180.251 94.0174 178.941 93.9446C177.63 93.799 176.284 93.3987 174.901 92.7436C173.518 92.0157 172.353 90.7783 171.407 89.0315C170.534 87.2846 170.097 84.7734 170.097 81.498V26.3617C170.097 25.4883 170.388 24.724 170.97 24.0689C171.625 23.4138 172.426 23.0863 173.372 23.0863Z" fill="#6E49F4"/>
<path d="M148.712 90.7784C148.712 91.6518 148.384 92.4161 147.729 93.0712C147.074 93.7262 146.31 94.0538 145.436 94.0538C144.49 94.0538 143.69 93.7262 143.034 93.0712C142.452 92.4161 142.161 91.6518 142.161 90.7784V40.5552C142.161 39.6818 142.452 38.9175 143.034 38.2624C143.69 37.6073 144.49 37.2798 145.436 37.2798C146.383 37.2798 147.147 37.6073 147.729 38.2624C148.384 38.9175 148.712 39.6818 148.712 40.5552V90.7784ZM145.436 29.9647C143.908 29.9647 142.743 29.6371 141.943 28.982C141.215 28.2542 140.851 27.2352 140.851 25.925V24.8332C140.851 23.523 141.251 22.5404 142.052 21.8853C142.925 21.1574 144.09 20.7935 145.546 20.7935C146.929 20.7935 147.984 21.1574 148.712 21.8853C149.513 22.5404 149.913 23.523 149.913 24.8332V25.925C149.913 27.2352 149.513 28.2542 148.712 28.982C147.984 29.6371 146.892 29.9647 145.436 29.9647Z" fill="white"/>
<path d="M87.8811 94.0538C86.9349 94.0538 86.1342 93.7262 85.4792 93.0712C84.8969 92.4161 84.6057 91.6518 84.6057 90.7784V16.5354C84.6057 15.662 84.8969 14.8977 85.4792 14.2426C86.1342 13.5876 86.9349 13.26 87.8811 13.26C88.8274 13.26 89.5916 13.5876 90.1739 14.2426C90.829 14.8977 91.1566 15.662 91.1566 16.5354V90.7784C91.1566 91.6518 90.829 92.4161 90.1739 93.0712C89.5916 93.7262 88.8274 94.0538 87.8811 94.0538ZM125.003 38.044C125.803 38.044 126.531 38.408 127.186 39.1358C127.841 39.7909 128.169 40.5188 128.169 41.3195C128.169 42.2657 127.769 43.1028 126.968 43.8306L90.2831 75.0563L89.9556 67.3045L122.71 39.1358C123.365 38.408 124.129 38.044 125.003 38.044ZM125.876 94.0538C124.93 94.0538 124.129 93.6534 123.474 92.8528L98.5809 66.431L103.494 61.9546L128.169 88.2672C128.824 88.9951 129.151 89.8321 129.151 90.7784C129.151 91.7974 128.751 92.598 127.95 93.1803C127.15 93.7626 126.458 94.0538 125.876 94.0538Z" fill="white"/>
<path d="M43.484 13.2051L17.2998 78.0113M9.56493 24.701L60.8644 46.5631M8 24.4042L16.8015 79L61 45.9878L43.468 13L8 24.4042Z" stroke="white" stroke-width="4"/>
</svg>
