<svg width="254" height="98" viewBox="0 0 254 98" fill="none" xmlns="http://www.w3.org/2000/svg">
<g clip-path="url(#clip0_912_74)">
<g clip-path="url(#clip1_912_74)">
<path d="M41.3214 5C46.7697 5.25178 52.3889 5.93705 57.3982 8.44418L57.5157 8.08907C57.9903 8.95368 59.1175 9.06413 59.9539 9.5677C60.33 9.77435 62.1691 10.9751 62.3138 11.0083C62.4586 11.0416 62.5713 10.8325 62.7339 10.8266C63.0151 10.8159 63.6225 11.2506 63.7447 11.5333C63.3508 11.5107 63.1017 10.8812 62.6781 11.1176C63.0186 11.5998 63.6581 11.7743 64.0876 12.0819C65.2029 12.8777 66.2969 13.8717 67.4335 14.671C67.6791 14.8432 68.2178 15.2755 68.4907 15.1568L66.7394 13.6485L66.8877 13.3171C69.2465 15.5404 72.1367 17.1104 73.8821 19.9751C74.0019 20.158 74.4255 20.7447 74.1265 20.9157L73.2959 19.7328L73.118 20.0261C73.5985 20.4513 73.7954 20.9715 74.4219 21.2161L74.1787 21.3349C74.2463 21.5 74.747 22.5166 74.804 22.5546C74.9274 22.6366 75.1552 22.5344 75.3782 22.7518C75.4862 22.9988 76.5647 24.5891 75.727 24.481C75.6606 23.1485 73.6697 21.5297 72.8225 20.4406C72.7027 20.3064 71.8211 19.3741 71.8128 19.9074C74.9712 23.3337 77.0298 27.7577 78.3575 32.1888L78.6944 32.2031C78.3954 33.0475 79.048 34.0629 79.2177 34.9228C79.6258 36.9917 79.8513 39.5154 79.8785 41.6449C79.8809 41.8456 79.8026 42.1722 79.9996 42.2969V42.4157L79.6899 44.2767L79.735 45.4311L79.2889 45.9786C79.5546 44.2114 79.2746 42.4857 79.169 40.7542L78.8155 40.9917L78.4678 37.4347L78.8 37.4216C79.0575 36.9192 78.5129 36.7637 78.4951 36.6663C78.4014 36.1651 78.3337 35.4822 78.3432 35.0166L77.629 34.2245C77.5756 34.9204 78.0264 35.6176 78.1842 36.2031C78.2317 36.3777 77.9624 36.7007 78.3409 36.8967L78.0988 37.0154C78.0798 37.1675 78.2732 37.2482 78.2851 37.367C78.4453 38.7648 78.2305 40.6033 78.9341 41.8242L78.5699 41.8895C78.7787 52.8373 73.1108 64.8789 64.4329 71.1318C64.1398 71.247 63.689 71.4881 63.3924 71.2767C63.3734 71.2945 63.409 71.5665 63.2215 71.7613C62.9901 71.9002 60.4843 73.8278 60.3075 73.4762C60.4463 73.3622 61.3077 72.7886 61.1369 72.5855C60.9529 72.367 60.8462 72.8313 60.7856 72.8658C60.6563 72.9406 60.2363 73.0356 60.069 73.0594C60.0512 73.0867 60.101 73.209 60.0417 73.2672L57.2215 74.6021C57.6747 73.9359 58.58 73.7922 59.2788 73.3967C59.5636 73.19 59.7641 72.7838 60.069 73.0594C61.2258 71.7078 64.0141 70.3694 65.3584 68.905L65.2255 68.4252C65.4331 68.1627 66.336 67.829 66.1806 67.4774C65.5909 67.7779 65.7985 68.1057 65.0582 68.0119C64.777 68.1235 64.2656 68.7351 63.8681 68.842L64.1031 69.1366C63.5074 69.1591 63.7483 69.6781 63.7258 69.715C63.7008 69.7577 63.1788 69.962 63.0435 70.0439C62.8715 70.1484 63.0151 70.4857 62.5689 70.2126C62.4574 70.6995 62.1394 70.9287 61.672 71.0416L61.6114 70.804C61.7657 70.8444 62.6757 69.9572 62.5594 69.8527C62.3115 69.6306 61.8737 70.519 61.4987 70.3931L61.195 70.8017L61.373 70.209C60.8082 70.2827 60.6362 70.709 60.0821 70.8753C58.93 71.1247 61.9235 69.1912 62.086 68.9632C64.8292 66.2185 68.3803 62.7316 69.5585 59.0451C69.1207 59.1663 69.1682 59.6354 69.0175 59.8682C68.2332 60.4275 66.6611 63.4537 66.0038 63.8587C65.5007 64.1425 65.8353 63.266 66.2387 63.0855L65.884 63.0249C66.0619 62.9287 66.9708 61.7862 66.4191 61.8979C65.8887 62.1223 64.72 64.5677 63.9251 64.8658C63.6546 64.4002 64.9573 64.3931 63.9856 64.0368L64.4009 63.7981L64.5183 64.0356C64.987 63.7779 64.8897 63.2945 65.0807 62.9347C66.6967 60.3325 69.5182 56.9644 70.1541 53.9418C69.3663 54.0475 68.9795 56.1164 68.4705 56.8278C68.0529 57.4394 67.6305 58.399 66.9506 58.7506L68.7327 54.5962L68.5547 54.418C68.2083 54.5629 68.251 55.2886 67.8986 55.0677C69.2571 51.9537 69.8646 48.3159 70.2775 44.9798C70.2431 41.6449 70.4413 38.4299 69.1017 35.3254C69.2844 34.5249 69.4541 34.2114 68.7909 33.3884C68.722 33.1829 68.9344 32.9525 68.6698 32.8017L68.601 33.0238C67.7005 32.753 68.7149 32.6413 68.7268 32.5059C68.5856 31.8967 67.6471 31.133 67.4988 30.6675C67.6186 30.0475 67.061 29.5903 66.9447 29.0024L66.476 29.1211C66.5235 28.5404 65.7985 28.0309 65.477 27.5665C63.5561 24.7161 61.227 21.8895 58.3462 19.9774C57.4291 19.9074 60.6207 22.0416 60.724 22.348C61.6447 23.2755 62.2379 24.4857 63.2749 25.2577C63.8788 26.4952 65.1009 27.4525 65.5257 28.7637C52.0247 7.82185 19.7428 15.8682 16.5298 40.228C15.0467 55.5784 27.3588 67.1995 41.5385 69.9394C41.8553 70.0202 42.6977 69.9644 42.3394 70.4561C41.3463 70.8705 39.9961 69.943 38.9033 70.2126C38.545 70.152 37.7524 69.5962 37.2339 69.6176C36.7878 69.6116 37.9292 70.2862 38.0586 70.3361C38.7859 70.6211 40.2583 71.0867 40.8859 71.5131C41.0675 71.6366 40.9939 71.9406 41.3855 71.8777C41.5005 71.3515 42.2421 71.8682 42.5957 71.9465C42.8069 71.9929 43.2091 71.9145 43.4606 71.9941L42.9279 72.1104L42.8674 72.348C43.6516 72.6841 44.5 72.8254 45.359 72.8254L45.1763 73.4109C44.5712 73.1247 44.322 73.8979 43.5793 73.6556C43.5235 74 43.6552 73.8587 43.8723 73.899C44.2757 73.9762 44.4418 73.9228 44.8227 73.7708L44.8844 74.0689L43.6979 74.367V74.0974L43.4618 74.0107L42.986 74.6627L43.5781 75.1971L41.5622 75.4359L41.9182 75.7898L41.2075 76.0261C41.4756 76.2779 42.1341 75.8147 42.038 76.2636L39.6674 77.0368C39.6674 77.1116 40.9595 77.6033 41.0295 77.2173L41.2063 77.3943L40.9702 77.5119L41.4436 77.8088C40.0969 77.8539 38.7728 78.0606 37.4107 77.9299L38.0028 78.285L36.0332 78.0594C35.561 78.3385 34.7198 77.7541 34.6818 78.4038L35.0247 78.4121C34.9713 78.7815 35.0793 78.7411 35.1956 78.8872C35.4447 79.1971 34.6688 78.7743 34.6166 78.766C33.8347 78.6271 32.4833 78.4917 31.7595 78.1817C31.4581 78.0522 31.432 77.4976 30.8222 77.4572L30.7676 77.7506L30.5291 77.8112C30.6217 77.2458 29.8505 77.2767 29.5194 76.981V77.4549C28.3923 76.196 26.3325 75.8717 24.8316 75.0226C24.4223 74.8884 23.2987 73.7755 23.0555 74.0689L23.5289 74.3682C23.6606 74.88 22.8692 74.291 22.7055 74.1758C22.55 74.0665 22.6319 73.7779 22.2261 73.8919C22.0826 74.2411 23.5846 74.9074 23.8291 75.076C24.1613 75.2019 23.7318 74.7019 24.0616 74.842C24.9218 75.7138 28.4279 76.5 28.2748 77.0974C20.5662 74.7411 13.4734 67.7138 9.6399 60.652C9.49989 60.5831 9.28395 60.7506 9.17361 60.5285C8.99564 60.1698 9.64346 60.6698 9.526 60.2957C4.24021 50.4881 3.90562 41.2292 6.85997 30.5392C7.26456 29.3373 7.7522 28.1663 8.15561 26.9667C8.32883 26.4525 9.12259 25.7874 9.45125 25.2945C10.2059 24.1651 10.6579 22.6259 11.4896 21.5154C11.8207 21.0736 12.3558 20.6865 12.7271 20.2613C12.9312 20.0285 13.2421 19.3314 13.477 19.1639C13.5743 19.0938 13.77 19.1532 13.795 19.1318C13.8092 19.12 13.6656 18.9287 13.7297 18.7815C13.7807 18.6651 15.1309 17.0428 15.3338 16.8147C22.2214 9.87767 31.5115 5.54869 41.3214 5ZM30.0498 9.038C29.7722 9.02375 28.0411 9.70071 28.0363 9.80998C28.0233 10.0534 28.3531 9.92399 28.4694 9.89192C28.823 9.79454 29.173 9.62945 29.5277 9.52969L30.0498 9.03919V9.038ZM22.8134 12.7185C24.1043 12.9952 26.2863 10.5249 27.7931 10.2815C28.2511 9.57007 26.9744 10.1306 26.8712 10.2565C26.8012 10.342 26.8712 10.5463 26.8439 10.5796C26.3183 10.3527 26.1795 10.9382 25.7179 11.1734L25.6622 10.9382C21.8856 12.557 18.4211 15.4667 15.4691 18.3717C15.3481 18.4964 15.1654 18.5404 15.2211 18.7755C15.481 19.0344 16.8039 17.3444 16.9949 17.1675C18.1197 16.1271 19.5387 15.247 20.7679 14.38C21.2722 13.9299 22.8953 13.4014 22.8146 12.7185H22.8134ZM17.5917 15.4525C16.9629 15.5831 16.4847 16.5511 16.0078 16.9537C15.8594 17.1021 14.6125 17.8943 14.864 18.1829C15.7028 17.4715 16.633 16.6865 17.3544 15.8658C17.4648 15.7328 17.6427 15.6746 17.5917 15.4513V15.4525ZM13.6763 20.6781L12.8493 21.4525L12.1351 22.5772C12.37 22.8112 12.9668 21.6306 13.0831 21.4834C13.28 21.2316 13.7772 21.1603 13.6763 20.6781ZM11.3033 24.1211C11.1183 23.9109 10.3542 24.9857 10.3553 25.1888C10.8371 25.3052 10.6923 24.9525 10.8893 24.715C11.0008 24.5808 11.5252 24.3741 11.3033 24.1211ZM77.3869 32.0784C77.1615 32.0665 77.1461 32.0226 77.1473 32.2577C77.1496 32.5273 77.4712 34.0867 77.6847 34.095C78.1309 34.1116 77.6052 33.3147 77.5898 33.266C77.4747 32.8907 77.4866 32.4608 77.3857 32.0796L77.3869 32.0784ZM7.1376 32.3325C6.95489 32.19 6.82319 32.5047 6.79827 32.6152C6.71996 32.9549 7.33931 32.5463 7.3666 32.9667C7.00235 33.4323 7.1376 33.9964 6.91455 34.5713C7.21591 34.6247 7.1293 34.5261 7.20523 34.3337C7.33219 34.0131 7.60152 32.9062 7.51609 32.6199C7.18388 32.5998 7.17913 32.3634 7.1376 32.3314V32.3325Z" fill="white"/>
</g>
<path d="M110.36 74.4C109.147 74.4 108.027 74.0267 107 73.28C106.067 72.5333 105.6 71.46 105.6 70.06V16.86C105.6 15.2733 106.067 14.1067 107 13.36C108.027 12.52 109.147 12.1 110.36 12.1C111.573 12.1 112.647 12.52 113.58 13.36C114.607 14.1067 115.12 15.2733 115.12 16.86V44.16C115.12 45.0933 115.26 45.56 115.54 45.56C115.82 45.56 116.193 45.3733 116.66 45L134.02 32.54C135.047 31.98 135.98 31.7 136.82 31.7C138.127 31.7 139.2 32.1667 140.04 33.1C140.88 33.94 141.3 34.8733 141.3 35.9C141.3 37.4867 140.553 38.7467 139.06 39.68L124.78 48.64C123.94 49.2 123.52 49.76 123.52 50.32C123.52 50.88 123.847 51.4867 124.5 52.14L139.76 66.56C140.787 67.7733 141.3 68.8933 141.3 69.92C141.3 71.1333 140.833 72.16 139.9 73C138.967 73.9333 137.893 74.4 136.68 74.4C135.467 74.4 134.347 73.8867 133.32 72.86L116.94 56.62C116.287 55.9667 115.867 55.64 115.68 55.64C115.307 55.64 115.12 56.2 115.12 57.32V70.06C115.12 71.46 114.607 72.5333 113.58 73.28C112.647 74.0267 111.573 74.4 110.36 74.4ZM153.156 74.4C151.943 74.4 150.823 74.0267 149.796 73.28C148.863 72.5333 148.396 71.46 148.396 70.06V36.46C148.396 34.8733 148.863 33.7067 149.796 32.96C150.823 32.12 151.943 31.7 153.156 31.7C154.37 31.7 155.443 32.12 156.376 32.96C157.403 33.7067 157.916 34.8733 157.916 36.46V70.06C157.916 71.46 157.403 72.5333 156.376 73.28C155.443 74.0267 154.37 74.4 153.156 74.4ZM153.296 24C151.523 24 149.983 23.44 148.676 22.32C147.463 21.1067 146.856 19.66 146.856 17.98C146.856 16.3933 147.463 15.04 148.676 13.92C149.983 12.7067 151.523 12.1 153.296 12.1C154.976 12.1 156.423 12.7067 157.636 13.92C158.85 15.04 159.456 16.3933 159.456 17.98C159.456 19.66 158.85 21.1067 157.636 22.32C156.423 23.44 154.976 24 153.296 24ZM170.431 73C168.938 73 167.678 72.58 166.651 71.74C165.624 70.8067 165.111 69.6867 165.111 68.38C165.111 66.98 165.624 65.6267 166.651 64.32L187.091 44.02C187.744 43.3667 188.071 42.8067 188.071 42.34C188.071 41.78 187.418 41.5 186.111 41.5H170.571C169.264 41.5 168.144 41.1267 167.211 40.38C166.371 39.54 165.951 38.5133 165.951 37.3C165.951 35.9933 166.371 34.9667 167.211 34.22C168.144 33.4733 169.264 33.1 170.571 33.1H195.911C197.498 33.1 198.851 33.5667 199.971 34.5C201.091 35.4333 201.651 36.6467 201.651 38.14C201.651 39.9133 200.858 41.5933 199.271 43.18L180.371 61.8C179.718 62.4533 179.391 63.0133 179.391 63.48C179.391 64.04 180.044 64.32 181.351 64.32H198.711C200.018 64.32 201.138 64.74 202.071 65.58C203.098 66.42 203.611 67.4933 203.611 68.8C203.611 70.0133 203.144 71.04 202.211 71.88C201.278 72.6267 200.158 73 198.851 73H170.431ZM239.58 36.32C239.58 35.0133 240 33.94 240.84 33.1C241.773 32.1667 242.94 31.7 244.34 31.7C245.647 31.7 246.767 32.1667 247.7 33.1C248.633 33.94 249.1 35.0133 249.1 36.32V56.06C249.1 60.26 248.167 63.7133 246.3 66.42C244.433 69.1267 242.007 71.1333 239.02 72.44C236.033 73.7467 232.86 74.4 229.5 74.4C226.14 74.4 222.967 73.7467 219.98 72.44C216.993 71.1333 214.567 69.1267 212.7 66.42C210.833 63.7133 209.9 60.26 209.9 56.06V36.32C209.9 35.0133 210.32 33.94 211.16 33.1C212.093 32.1667 213.26 31.7 214.66 31.7C215.967 31.7 217.087 32.1667 218.02 33.1C218.953 33.94 219.42 35.0133 219.42 36.32V56.06C219.42 59.5133 220.447 61.9867 222.5 63.48C224.553 64.9733 226.887 65.72 229.5 65.72C232.207 65.72 234.54 64.9733 236.5 63.48C238.553 61.9867 239.58 59.5133 239.58 56.06V36.32Z" fill="white"/>
</g>
<defs>
<clipPath id="clip0_912_74">
<rect width="254" height="98" fill="white"/>
</clipPath>
<clipPath id="clip1_912_74">
<rect width="75" height="74" fill="white" transform="translate(5 5)"/>
</clipPath>
</defs>
</svg>
