<svg width="238" height="98" viewBox="0 0 238 98" fill="none" xmlns="http://www.w3.org/2000/svg">
<g clip-path="url(#clip0_911_29)">
<path d="M41.3214 5C46.7698 5.25178 52.389 5.93705 57.3983 8.44418L57.5158 8.08907C57.9904 8.95368 59.1175 9.06413 59.954 9.5677C60.3301 9.77435 62.1692 10.9751 62.3139 11.0083C62.4587 11.0416 62.5714 10.8325 62.7339 10.8266C63.0151 10.8159 63.6226 11.2506 63.7448 11.5333C63.3509 11.5107 63.1017 10.8812 62.6782 11.1176C63.0187 11.5998 63.6582 11.7743 64.0877 12.0819C65.203 12.8777 66.2969 13.8717 67.4336 14.671C67.6792 14.8432 68.2178 15.2755 68.4907 15.1568L66.7395 13.6485L66.8878 13.3171C69.2465 15.5404 72.1368 17.1104 73.8821 19.9751C74.002 20.158 74.4255 20.7447 74.1265 20.9157L73.296 19.7328L73.118 20.0261C73.5985 20.4513 73.7955 20.9715 74.422 21.2161L74.1787 21.3349C74.2464 21.5 74.7471 22.5166 74.804 22.5546C74.9274 22.6366 75.1552 22.5344 75.3783 22.7518C75.4862 22.9988 76.5648 24.5891 75.7271 24.481C75.6607 23.1485 73.6697 21.5297 72.8226 20.4406C72.7028 20.3064 71.8212 19.3741 71.8129 19.9074C74.9713 23.3337 77.0299 27.7577 78.3575 32.1888L78.6945 32.2031C78.3955 33.0475 79.0481 34.0629 79.2177 34.9228C79.6259 36.9917 79.8513 39.5154 79.8786 41.6449C79.881 41.8456 79.8027 42.1722 79.9996 42.2969V42.4157L79.69 44.2767L79.735 45.4311L79.2889 45.9786C79.5547 44.2114 79.2747 42.4857 79.1691 40.7542L78.8155 40.9917L78.4679 37.4347L78.8001 37.4216C79.0576 36.9192 78.513 36.7637 78.4952 36.6663C78.4014 36.1651 78.3338 35.4822 78.3433 35.0166L77.629 34.2245C77.5756 34.9204 78.0265 35.6176 78.1843 36.2031C78.2318 36.3777 77.9624 36.7007 78.3409 36.8967L78.0989 37.0154C78.0799 37.1675 78.2733 37.2482 78.2852 37.367C78.4453 38.7648 78.2306 40.6033 78.9342 41.8242L78.5699 41.8895C78.7787 52.8373 73.1109 64.8789 64.433 71.1318C64.1399 71.247 63.689 71.4881 63.3924 71.2767C63.3734 71.2945 63.409 71.5665 63.2216 71.7613C62.9902 71.9002 60.4843 73.8278 60.3076 73.4762C60.4464 73.3622 61.3078 72.7886 61.1369 72.5855C60.953 72.367 60.8462 72.8313 60.7857 72.8658C60.6564 72.9406 60.2364 73.0356 60.0691 73.0594C60.0513 73.0867 60.1011 73.209 60.0418 73.2672L57.2215 74.6021C57.6748 73.9359 58.58 73.7922 59.2789 73.3967C59.5636 73.19 59.7642 72.7838 60.0691 73.0594C61.2259 71.7078 64.0141 70.3694 65.3584 68.905L65.2255 68.4252C65.4332 68.1627 66.3361 67.829 66.1807 67.4774C65.591 67.7779 65.7986 68.1057 65.0582 68.0119C64.777 68.1235 64.2657 68.7351 63.8682 68.842L64.1031 69.1366C63.5075 69.1591 63.7484 69.6781 63.7258 69.715C63.7009 69.7577 63.1788 69.962 63.0436 70.0439C62.8715 70.1484 63.0151 70.4857 62.569 70.2126C62.4575 70.6995 62.1395 70.9287 61.672 71.0416L61.6115 70.804C61.7657 70.8444 62.6758 69.9572 62.5595 69.8527C62.3115 69.6306 61.8737 70.519 61.4988 70.3931L61.195 70.8017L61.373 70.209C60.8083 70.2827 60.6362 70.709 60.0821 70.8753C58.9301 71.1247 61.9236 69.1912 62.0861 68.9632C64.8292 66.2185 68.3804 62.7316 69.5586 59.0451C69.1208 59.1663 69.1682 59.6354 69.0175 59.8682C68.2333 60.4275 66.6612 63.4537 66.0039 63.8587C65.5008 64.1425 65.8354 63.266 66.2388 63.0855L65.884 63.0249C66.062 62.9287 66.9708 61.7862 66.4191 61.8979C65.8888 62.1223 64.7201 64.5677 63.9251 64.8658C63.6546 64.4002 64.9574 64.3931 63.9857 64.0368L64.4009 63.7981L64.5184 64.0356C64.9871 63.7779 64.8898 63.2945 65.0808 62.9347C66.6968 60.3325 69.5182 56.9644 70.1542 53.9418C69.3664 54.0475 68.9796 56.1164 68.4706 56.8278C68.0529 57.4394 67.6305 58.399 66.9507 58.7506L68.7328 54.5962L68.5548 54.418C68.2083 54.5629 68.2511 55.2886 67.8987 55.0677C69.2572 51.9537 69.8647 48.3159 70.2776 44.9798C70.2432 41.6449 70.4413 38.4299 69.1018 35.3254C69.2845 34.5249 69.4542 34.2114 68.7909 33.3884C68.7221 33.1829 68.9345 32.9525 68.6699 32.8017L68.6011 33.0238C67.7005 32.753 68.715 32.6413 68.7268 32.5059C68.5857 31.8967 67.6471 31.133 67.4988 30.6675C67.6187 30.0475 67.061 29.5903 66.9448 29.0024L66.4761 29.1211C66.5235 28.5404 65.7986 28.0309 65.4771 27.5665C63.5562 24.7161 61.2271 21.8895 58.3463 19.9774C57.4291 19.9074 60.6208 22.0416 60.724 22.348C61.6447 23.2755 62.238 24.4857 63.275 25.2577C63.8789 26.4952 65.101 27.4525 65.5257 28.7637C52.0247 7.82185 19.7429 15.8682 16.5299 40.228C15.0468 55.5784 27.3589 67.1995 41.5386 69.9394C41.8554 70.0202 42.6978 69.9644 42.3394 70.4561C41.3464 70.8705 39.9961 69.943 38.9034 70.2126C38.5451 70.152 37.7525 69.5962 37.234 69.6176C36.7879 69.6116 37.9293 70.2862 38.0586 70.3361C38.7859 70.6211 40.2584 71.0867 40.886 71.5131C41.0675 71.6366 40.994 71.9406 41.3855 71.8777C41.5006 71.3515 42.2422 71.8682 42.5957 71.9465C42.8069 71.9929 43.2091 71.9145 43.4607 71.9941L42.9279 72.1104L42.8674 72.348C43.6517 72.6841 44.5 72.8254 45.3591 72.8254L45.1763 73.4109C44.5712 73.1247 44.3221 73.8979 43.5793 73.6556C43.5236 74 43.6553 73.8587 43.8724 73.899C44.2758 73.9762 44.4419 73.9228 44.8228 73.7708L44.8845 74.0689L43.698 74.367V74.0974L43.4619 74.0107L42.9861 74.6627L43.5781 75.1971L41.5623 75.4359L41.9182 75.7898L41.2075 76.0261C41.4757 76.2779 42.1342 75.8147 42.0381 76.2636L39.6675 77.0368C39.6675 77.1116 40.9596 77.6033 41.0296 77.2173L41.2064 77.3943L40.9702 77.5119L41.4437 77.8088C40.097 77.8539 38.7729 78.0606 37.4108 77.9299L38.0029 78.285L36.0333 78.0594C35.5611 78.3385 34.7199 77.7541 34.6819 78.4038L35.0248 78.4121C34.9714 78.7815 35.0794 78.7411 35.1956 78.8872C35.4448 79.1971 34.6688 78.7743 34.6166 78.766C33.8347 78.6271 32.4833 78.4917 31.7596 78.1817C31.4582 78.0522 31.4321 77.4976 30.8223 77.4572L30.7677 77.7506L30.5292 77.8112C30.6217 77.2458 29.8505 77.2767 29.5195 76.981V77.4549C28.3923 76.196 26.3326 75.8717 24.8317 75.0226C24.4224 74.8884 23.2988 73.7755 23.0555 74.0689L23.5289 74.3682C23.6606 74.88 22.8693 74.291 22.7055 74.1758C22.5501 74.0665 22.632 73.7779 22.2262 73.8919C22.0826 74.2411 23.5847 74.9074 23.8291 75.076C24.1613 75.2019 23.7318 74.7019 24.0617 74.842C24.9219 75.7138 28.4279 76.5 28.2749 77.0974C20.5663 74.7411 13.4735 67.7138 9.63996 60.652C9.49995 60.5831 9.28401 60.7506 9.17367 60.5285C8.9957 60.1698 9.64352 60.6698 9.52606 60.2957C4.24027 50.4881 3.90568 41.2292 6.86003 30.5392C7.26462 29.3373 7.75226 28.1663 8.15567 26.9667C8.3289 26.4525 9.12265 25.7874 9.45131 25.2945C10.2059 24.1651 10.658 22.6259 11.4897 21.5154C11.8207 21.0736 12.3558 20.6865 12.7272 20.2613C12.9313 20.0285 13.2421 19.3314 13.477 19.1639C13.5743 19.0938 13.7701 19.1532 13.795 19.1318C13.8093 19.12 13.6657 18.9287 13.7298 18.7815C13.7808 18.6651 15.131 17.0428 15.3339 16.8147C22.2214 9.87767 31.5116 5.54869 41.3214 5ZM30.0499 9.038C29.7722 9.02375 28.0411 9.70071 28.0364 9.80998C28.0233 10.0534 28.3532 9.92399 28.4695 9.89192C28.823 9.79454 29.173 9.62945 29.5278 9.52969L30.0499 9.03919V9.038ZM22.8135 12.7185C24.1044 12.9952 26.2863 10.5249 27.7932 10.2815C28.2511 9.57007 26.9745 10.1306 26.8713 10.2565C26.8013 10.342 26.8713 10.5463 26.844 10.5796C26.3184 10.3527 26.1795 10.9382 25.718 11.1734L25.6622 10.9382C21.8857 12.557 18.4211 15.4667 15.4692 18.3717C15.3481 18.4964 15.1654 18.5404 15.2212 18.7755C15.481 19.0344 16.8039 17.3444 16.995 17.1675C18.1198 16.1271 19.5388 15.247 20.768 14.38C21.2722 13.9299 22.8954 13.4014 22.8147 12.7185H22.8135ZM17.5918 15.4525C16.9629 15.5831 16.4848 16.5511 16.0078 16.9537C15.8595 17.1021 14.6125 17.8943 14.864 18.1829C15.7029 17.4715 16.6331 16.6865 17.3545 15.8658C17.4648 15.7328 17.6428 15.6746 17.5918 15.4513V15.4525ZM13.6764 20.6781L12.8494 21.4525L12.1351 22.5772C12.3701 22.8112 12.9669 21.6306 13.0831 21.4834C13.2801 21.2316 13.7772 21.1603 13.6764 20.6781ZM11.3034 24.1211C11.1183 23.9109 10.3542 24.9857 10.3554 25.1888C10.8371 25.3052 10.6924 24.9525 10.8893 24.715C11.0009 24.5808 11.5253 24.3741 11.3034 24.1211ZM77.387 32.0784C77.1616 32.0665 77.1461 32.0226 77.1473 32.2577C77.1497 32.5273 77.4712 34.0867 77.6848 34.095C78.1309 34.1116 77.6053 33.3147 77.5899 33.266C77.4748 32.8907 77.4867 32.4608 77.3858 32.0796L77.387 32.0784ZM7.13767 32.3325C6.95495 32.19 6.82325 32.5047 6.79833 32.6152C6.72002 32.9549 7.33937 32.5463 7.36666 32.9667C7.00241 33.4323 7.13767 33.9964 6.91461 34.5713C7.21597 34.6247 7.12936 34.5261 7.2053 34.3337C7.33225 34.0131 7.60158 32.9062 7.51615 32.6199C7.18394 32.5998 7.17919 32.3634 7.13767 32.3314V32.3325Z" fill="white"/>
</g>
<path d="M222.862 33.0132H232.928V69.1161H225.435L224.376 65.029H224.073C223.518 65.5841 222.862 66.1643 222.105 66.7698C221.399 67.3249 220.541 67.8547 219.532 68.3593C218.573 68.8134 217.463 69.1918 216.201 69.4946C214.99 69.7973 213.628 69.9487 212.114 69.9487C208.229 69.9487 205.151 68.8638 202.88 66.6941C200.66 64.5244 199.55 61.3203 199.55 57.0818V33.0132H209.616V56.2493C209.616 58.419 210.121 59.9832 211.13 60.9419C212.19 61.9006 213.527 62.3799 215.142 62.3799C216.958 62.3799 218.497 62.0015 219.759 61.2446C221.071 60.4878 222.105 59.6047 222.862 58.5956V33.0132Z" fill="white"/>
<path d="M193.045 39.1439L176.167 61.8501H193.423V69.1161H164.889V62.7584L181.767 40.2792H165.873V33.0132H193.045V39.1439Z" fill="white"/>
<path d="M147.756 69.1166V33.0136H157.823V69.1166H147.756ZM152.827 25.2935C151.112 25.2935 149.774 24.8141 148.816 23.8554C147.857 22.8463 147.378 21.61 147.378 20.1468C147.378 18.6835 147.857 17.4725 148.816 16.5137C149.774 15.5046 151.112 15 152.827 15C154.492 15 155.804 15.5046 156.763 16.5137C157.772 17.4725 158.277 18.6835 158.277 20.1468C158.277 21.61 157.797 22.8463 156.839 23.8554C155.88 24.8141 154.543 25.2935 152.827 25.2935Z" fill="white"/>
<path d="M102 69.1163V21.4331H112.369V41.4903L128.793 21.4331H141.66L123.874 42.2472L143.174 69.1163H130.383L116.305 48.7563L112.369 52.9191V69.1163H102Z" fill="white"/>
<defs>
<clipPath id="clip0_911_29">
<rect width="75" height="74" fill="white" transform="translate(5 5)"/>
</clipPath>
</defs>
</svg>
