<svg width="254" height="98" viewBox="0 0 254 98" fill="none" xmlns="http://www.w3.org/2000/svg">
<g clip-path="url(#clip0_912_85)">
<g clip-path="url(#clip1_912_85)">
<path d="M41.3213 5C46.7697 5.25178 52.3888 5.93705 57.3982 8.44418L57.5156 8.08907C57.9902 8.95368 59.1174 9.06413 59.9539 9.5677C60.33 9.77435 62.169 10.9751 62.3138 11.0083C62.4585 11.0416 62.5712 10.8325 62.7338 10.8266C63.015 10.8159 63.6225 11.2506 63.7447 11.5333C63.3508 11.5107 63.1016 10.8812 62.678 11.1176C63.0186 11.5998 63.6581 11.7743 64.0876 12.0819C65.2029 12.8777 66.2968 13.8717 67.4335 14.671C67.6791 14.8432 68.2177 15.2755 68.4906 15.1568L66.7394 13.6485L66.8877 13.3171C69.2464 15.5404 72.1367 17.1104 73.882 19.9751C74.0018 20.158 74.4254 20.7447 74.1264 20.9157L73.2959 19.7328L73.1179 20.0261C73.5984 20.4513 73.7954 20.9715 74.4218 21.2161L74.1786 21.3349C74.2462 21.5 74.7469 22.5166 74.8039 22.5546C74.9273 22.6366 75.1551 22.5344 75.3781 22.7518C75.4861 22.9988 76.5646 24.5891 75.727 24.481C75.6605 23.1485 73.6696 21.5297 72.8225 20.4406C72.7026 20.3064 71.8211 19.3741 71.8128 19.9074C74.9712 23.3337 77.0297 27.7577 78.3574 32.1888L78.6944 32.2031C78.3954 33.0475 79.0479 34.0629 79.2176 34.9228C79.6258 36.9917 79.8512 39.5154 79.8785 41.6449C79.8809 41.8456 79.8025 42.1722 79.9995 42.2969V42.4157L79.6898 44.2767L79.7349 45.4311L79.2888 45.9786C79.5546 44.2114 79.2746 42.4857 79.169 40.7542L78.8154 40.9917L78.4678 37.4347L78.8 37.4216C79.0574 36.9192 78.5128 36.7637 78.495 36.6663C78.4013 36.1651 78.3337 35.4822 78.3432 35.0166L77.6289 34.2245C77.5755 34.9204 78.0264 35.6176 78.1842 36.2031C78.2316 36.3777 77.9623 36.7007 78.3408 36.8967L78.0988 37.0154C78.0798 37.1675 78.2732 37.2482 78.285 37.367C78.4452 38.7648 78.2305 40.6033 78.934 41.8242L78.5698 41.8895C78.7786 52.8373 73.1108 64.8789 64.4328 71.1318C64.1398 71.247 63.6889 71.4881 63.3923 71.2767C63.3733 71.2945 63.4089 71.5665 63.2214 71.7613C62.9901 71.9002 60.4842 73.8278 60.3074 73.4762C60.4463 73.3622 61.3076 72.7886 61.1368 72.5855C60.9529 72.367 60.8461 72.8313 60.7856 72.8658C60.6563 72.9406 60.2362 73.0356 60.069 73.0594C60.0512 73.0867 60.101 73.209 60.0417 73.2672L57.2214 74.6021C57.6746 73.9359 58.5799 73.7922 59.2788 73.3967C59.5635 73.19 59.764 72.7838 60.069 73.0594C61.2258 71.7078 64.014 70.3694 65.3583 68.905L65.2254 68.4252C65.433 68.1627 66.336 67.829 66.1805 67.4774C65.5909 67.7779 65.7985 68.1057 65.0581 68.0119C64.7769 68.1235 64.2655 68.7351 63.8681 68.842L64.103 69.1366C63.5074 69.1591 63.7482 69.6781 63.7257 69.715C63.7008 69.7577 63.1787 69.962 63.0435 70.0439C62.8714 70.1484 63.015 70.4857 62.5689 70.2126C62.4573 70.6995 62.1394 70.9287 61.6719 71.0416L61.6114 70.804C61.7656 70.8444 62.6757 69.9572 62.5594 69.8527C62.3114 69.6306 61.8736 70.519 61.4987 70.3931L61.1949 70.8017L61.3729 70.209C60.8081 70.2827 60.6361 70.709 60.082 70.8753C58.9299 71.1247 61.9234 69.1912 62.086 68.9632C64.8291 66.2185 68.3803 62.7316 69.5584 59.0451C69.1206 59.1663 69.1681 59.6354 69.0174 59.8682C68.2331 60.4275 66.6611 63.4537 66.0037 63.8587C65.5007 64.1425 65.8353 63.266 66.2387 63.0855L65.8839 63.0249C66.0619 62.9287 66.9707 61.7862 66.419 61.8979C65.8887 62.1223 64.72 64.5677 63.925 64.8658C63.6545 64.4002 64.9573 64.3931 63.9855 64.0368L64.4008 63.7981L64.5183 64.0356C64.9869 63.7779 64.8896 63.2945 65.0807 62.9347C66.6967 60.3325 69.5181 56.9644 70.1541 53.9418C69.3662 54.0475 68.9794 56.1164 68.4704 56.8278C68.0528 57.4394 67.6304 58.399 66.9506 58.7506L68.7327 54.5962L68.5547 54.418C68.2082 54.5629 68.2509 55.2886 67.8986 55.0677C69.2571 51.9537 69.8646 48.3159 70.2775 44.9798C70.243 41.6449 70.4412 38.4299 69.1017 35.3254C69.2844 34.5249 69.454 34.2114 68.7908 33.3884C68.722 33.1829 68.9344 32.9525 68.6698 32.8017L68.601 33.0238C67.7004 32.753 68.7149 32.6413 68.7267 32.5059C68.5855 31.8967 67.647 31.133 67.4987 30.6675C67.6185 30.0475 67.0609 29.5903 66.9446 29.0024L66.476 29.1211C66.5234 28.5404 65.7985 28.0309 65.4769 27.5665C63.556 24.7161 61.227 21.8895 58.3462 19.9774C57.429 19.9074 60.6207 22.0416 60.7239 22.348C61.6446 23.2755 62.2378 24.4857 63.2748 25.2577C63.8788 26.4952 65.1008 27.4525 65.5256 28.7637C52.0246 7.82185 19.7427 15.8682 16.5297 40.228C15.0466 55.5784 27.3588 67.1995 41.5384 69.9394C41.8552 70.0202 42.6976 69.9644 42.3393 70.4561C41.3462 70.8705 39.996 69.943 38.9033 70.2126C38.545 70.152 37.7524 69.5962 37.2339 69.6176C36.7878 69.6116 37.9292 70.2862 38.0585 70.3361C38.7858 70.6211 40.2582 71.0867 40.8859 71.5131C41.0674 71.6366 40.9939 71.9406 41.3854 71.8777C41.5005 71.3515 42.242 71.8682 42.5956 71.9465C42.8068 71.9929 43.209 71.9145 43.4606 71.9941L42.9278 72.1104L42.8673 72.348C43.6516 72.6841 44.4999 72.8254 45.3589 72.8254L45.1762 73.4109C44.5711 73.1247 44.3219 73.8979 43.5792 73.6556C43.5234 74 43.6551 73.8587 43.8723 73.899C44.2757 73.9762 44.4418 73.9228 44.8226 73.7708L44.8843 74.0689L43.6979 74.367V74.0974L43.4617 74.0107L42.986 74.6627L43.578 75.1971L41.5622 75.4359L41.9181 75.7898L41.2074 76.0261C41.4756 76.2779 42.1341 75.8147 42.038 76.2636L39.6674 77.0368C39.6674 77.1116 40.9594 77.6033 41.0295 77.2173L41.2062 77.3943L40.9701 77.5119L41.4435 77.8088C40.0969 77.8539 38.7728 78.0606 37.4107 77.9299L38.0027 78.285L36.0332 78.0594C35.5609 78.3385 34.7197 77.7541 34.6818 78.4038L35.0247 78.4121C34.9713 78.7815 35.0792 78.7411 35.1955 78.8872C35.4447 79.1971 34.6687 78.7743 34.6165 78.766C33.8346 78.6271 32.4832 78.4917 31.7595 78.1817C31.4581 78.0522 31.432 77.4976 30.8221 77.4572L30.7676 77.7506L30.5291 77.8112C30.6216 77.2458 29.8504 77.2767 29.5194 76.981V77.4549C28.3922 76.196 26.3325 75.8717 24.8316 75.0226C24.4222 74.8884 23.2986 73.7755 23.0554 74.0689L23.5288 74.3682C23.6605 74.88 22.8691 74.291 22.7054 74.1758C22.55 74.0665 22.6318 73.7779 22.2261 73.8919C22.0825 74.2411 23.5846 74.9074 23.829 75.076C24.1612 75.2019 23.7317 74.7019 24.0615 74.842C24.9217 75.7138 28.4278 76.5 28.2747 77.0974C20.5662 74.7411 13.4734 67.7138 9.63984 60.652C9.49983 60.5831 9.28389 60.7506 9.17355 60.5285C8.99558 60.1698 9.6434 60.6698 9.52594 60.2957C4.24015 50.4881 3.90556 41.2292 6.85991 30.5392C7.2645 29.3373 7.75214 28.1663 8.15555 26.9667C8.32877 26.4525 9.12253 25.7874 9.45119 25.2945C10.2058 24.1651 10.6578 22.6259 11.4896 21.5154C11.8206 21.0736 12.3557 20.6865 12.7271 20.2613C12.9311 20.0285 13.242 19.3314 13.4769 19.1639C13.5742 19.0938 13.77 19.1532 13.7949 19.1318C13.8091 19.12 13.6656 18.9287 13.7296 18.7815C13.7807 18.6651 15.1309 17.0428 15.3338 16.8147C22.2213 9.87767 31.5115 5.54869 41.3213 5ZM30.0497 9.038C29.7721 9.02375 28.041 9.70071 28.0363 9.80998C28.0232 10.0534 28.3531 9.92399 28.4693 9.89192C28.8229 9.79454 29.1729 9.62945 29.5277 9.52969L30.0497 9.03919V9.038ZM22.8134 12.7185C24.1043 12.9952 26.2862 10.5249 27.793 10.2815C28.251 9.57007 26.9744 10.1306 26.8711 10.2565C26.8011 10.342 26.8711 10.5463 26.8439 10.5796C26.3182 10.3527 26.1794 10.9382 25.7179 11.1734L25.6621 10.9382C21.8855 12.557 18.421 15.4667 15.469 18.3717C15.348 18.4964 15.1653 18.5404 15.2211 18.7755C15.4809 19.0344 16.8038 17.3444 16.9948 17.1675C18.1196 16.1271 19.5387 15.247 20.7679 14.38C21.2721 13.9299 22.8952 13.4014 22.8146 12.7185H22.8134ZM17.5917 15.4525C16.9628 15.5831 16.4847 16.5511 16.0077 16.9537C15.8594 17.1021 14.6124 17.8943 14.8639 18.1829C15.7028 17.4715 16.633 16.6865 17.3544 15.8658C17.4647 15.7328 17.6427 15.6746 17.5917 15.4513V15.4525ZM13.6763 20.6781L12.8493 21.4525L12.135 22.5772C12.3699 22.8112 12.9667 21.6306 13.083 21.4834C13.28 21.2316 13.7771 21.1603 13.6763 20.6781ZM11.3033 24.1211C11.1182 23.9109 10.3541 24.9857 10.3553 25.1888C10.837 25.3052 10.6922 24.9525 10.8892 24.715C11.0007 24.5808 11.5252 24.3741 11.3033 24.1211ZM77.3869 32.0784C77.1614 32.0665 77.146 32.0226 77.1472 32.2577C77.1496 32.5273 77.4711 34.0867 77.6847 34.095C78.1308 34.1116 77.6052 33.3147 77.5898 33.266C77.4747 32.8907 77.4865 32.4608 77.3857 32.0796L77.3869 32.0784ZM7.13754 32.3325C6.95483 32.19 6.82313 32.5047 6.79821 32.6152C6.7199 32.9549 7.33925 32.5463 7.36654 32.9667C7.00228 33.4323 7.13754 33.9964 6.91448 34.5713C7.21585 34.6247 7.12924 34.5261 7.20517 34.3337C7.33213 34.0131 7.60146 32.9062 7.51603 32.6199C7.18382 32.5998 7.17907 32.3634 7.13754 32.3314V32.3325Z" fill="black"/>
</g>
<path d="M110.36 74.4C109.147 74.4 108.027 74.0267 107 73.28C106.067 72.5333 105.6 71.46 105.6 70.06V16.86C105.6 15.2733 106.067 14.1067 107 13.36C108.027 12.52 109.147 12.1 110.36 12.1C111.573 12.1 112.647 12.52 113.58 13.36C114.607 14.1067 115.12 15.2733 115.12 16.86V44.16C115.12 45.0933 115.26 45.56 115.54 45.56C115.82 45.56 116.193 45.3733 116.66 45L134.02 32.54C135.047 31.98 135.98 31.7 136.82 31.7C138.127 31.7 139.2 32.1667 140.04 33.1C140.88 33.94 141.3 34.8733 141.3 35.9C141.3 37.4867 140.553 38.7467 139.06 39.68L124.78 48.64C123.94 49.2 123.52 49.76 123.52 50.32C123.52 50.88 123.847 51.4867 124.5 52.14L139.76 66.56C140.787 67.7733 141.3 68.8933 141.3 69.92C141.3 71.1333 140.833 72.16 139.9 73C138.967 73.9333 137.893 74.4 136.68 74.4C135.467 74.4 134.347 73.8867 133.32 72.86L116.94 56.62C116.287 55.9667 115.867 55.64 115.68 55.64C115.307 55.64 115.12 56.2 115.12 57.32V70.06C115.12 71.46 114.607 72.5333 113.58 73.28C112.647 74.0267 111.573 74.4 110.36 74.4ZM153.156 74.4C151.943 74.4 150.823 74.0267 149.796 73.28C148.863 72.5333 148.396 71.46 148.396 70.06V36.46C148.396 34.8733 148.863 33.7067 149.796 32.96C150.823 32.12 151.943 31.7 153.156 31.7C154.37 31.7 155.443 32.12 156.376 32.96C157.403 33.7067 157.916 34.8733 157.916 36.46V70.06C157.916 71.46 157.403 72.5333 156.376 73.28C155.443 74.0267 154.37 74.4 153.156 74.4ZM153.296 24C151.523 24 149.983 23.44 148.676 22.32C147.463 21.1067 146.856 19.66 146.856 17.98C146.856 16.3933 147.463 15.04 148.676 13.92C149.983 12.7067 151.523 12.1 153.296 12.1C154.976 12.1 156.423 12.7067 157.636 13.92C158.85 15.04 159.456 16.3933 159.456 17.98C159.456 19.66 158.85 21.1067 157.636 22.32C156.423 23.44 154.976 24 153.296 24ZM170.431 73C168.938 73 167.678 72.58 166.651 71.74C165.624 70.8067 165.111 69.6867 165.111 68.38C165.111 66.98 165.624 65.6267 166.651 64.32L187.091 44.02C187.744 43.3667 188.071 42.8067 188.071 42.34C188.071 41.78 187.418 41.5 186.111 41.5H170.571C169.264 41.5 168.144 41.1267 167.211 40.38C166.371 39.54 165.951 38.5133 165.951 37.3C165.951 35.9933 166.371 34.9667 167.211 34.22C168.144 33.4733 169.264 33.1 170.571 33.1H195.911C197.498 33.1 198.851 33.5667 199.971 34.5C201.091 35.4333 201.651 36.6467 201.651 38.14C201.651 39.9133 200.858 41.5933 199.271 43.18L180.371 61.8C179.718 62.4533 179.391 63.0133 179.391 63.48C179.391 64.04 180.044 64.32 181.351 64.32H198.711C200.018 64.32 201.138 64.74 202.071 65.58C203.098 66.42 203.611 67.4933 203.611 68.8C203.611 70.0133 203.144 71.04 202.211 71.88C201.278 72.6267 200.158 73 198.851 73H170.431ZM239.58 36.32C239.58 35.0133 240 33.94 240.84 33.1C241.773 32.1667 242.94 31.7 244.34 31.7C245.647 31.7 246.767 32.1667 247.7 33.1C248.633 33.94 249.1 35.0133 249.1 36.32V56.06C249.1 60.26 248.167 63.7133 246.3 66.42C244.433 69.1267 242.007 71.1333 239.02 72.44C236.033 73.7467 232.86 74.4 229.5 74.4C226.14 74.4 222.967 73.7467 219.98 72.44C216.993 71.1333 214.567 69.1267 212.7 66.42C210.833 63.7133 209.9 60.26 209.9 56.06V36.32C209.9 35.0133 210.32 33.94 211.16 33.1C212.093 32.1667 213.26 31.7 214.66 31.7C215.967 31.7 217.087 32.1667 218.02 33.1C218.953 33.94 219.42 35.0133 219.42 36.32V56.06C219.42 59.5133 220.447 61.9867 222.5 63.48C224.553 64.9733 226.887 65.72 229.5 65.72C232.207 65.72 234.54 64.9733 236.5 63.48C238.553 61.9867 239.58 59.5133 239.58 56.06V36.32Z" fill="black"/>
</g>
<defs>
<clipPath id="clip0_912_85">
<rect width="254" height="98" fill="white"/>
</clipPath>
<clipPath id="clip1_912_85">
<rect width="75" height="74" fill="white" transform="translate(5 5)"/>
</clipPath>
</defs>
</svg>
